<svg width="150" height="150" viewBox="0 0 150 150" fill="none" xmlns="http://www.w3.org/2000/svg">
<path fill-rule="evenodd" clip-rule="evenodd" d="M74.9535 149.908C116.349 149.908 149.907 116.351 149.907 74.9549C149.907 33.5592 116.349 0.00140381 74.9535 0.00140381C33.5578 0.00140381 -6.10352e-05 33.5592 -6.10352e-05 74.9549C-6.10352e-05 116.351 33.5578 149.908 74.9535 149.908ZM48.4853 51.371C48.4853 48.243 45.9496 45.7072 42.8216 45.7072C39.6936 45.7072 37.1579 48.243 37.1579 51.371V98.5388C37.1579 101.667 39.6936 104.203 42.8216 104.203C45.9496 104.203 48.4853 101.667 48.4853 98.5388V51.371ZM112.749 51.371C112.749 48.243 110.213 45.7073 107.085 45.7073C103.957 45.7073 101.421 48.243 101.421 51.371V98.5389C101.421 101.667 103.957 104.203 107.085 104.203C110.213 104.203 112.749 101.667 112.749 98.5389V51.371ZM91.0191 64.0113C94.147 64.0113 96.6828 66.547 96.6828 69.675V98.5389C96.6828 101.667 94.147 104.203 91.0191 104.203C87.8911 104.203 85.3553 101.667 85.3553 98.5389V69.675C85.3553 66.547 87.8911 64.0113 91.0191 64.0113ZM64.551 69.675C64.551 66.547 62.0153 64.0113 58.8873 64.0113C55.7593 64.0113 53.2236 66.547 53.2236 69.675L53.2236 98.5389C53.2236 101.667 55.7593 104.203 58.8873 104.203C62.0153 104.203 64.551 101.667 64.551 98.5389V69.675ZM74.953 80.9071C78.081 80.9071 80.6168 83.4429 80.6168 86.5708V98.5388C80.6168 101.667 78.081 104.203 74.953 104.203C71.8251 104.203 69.2893 101.667 69.2893 98.5388V86.5708C69.2893 83.4429 71.8251 80.9071 74.953 80.9071Z" fill="#009FF9"/>
</svg>
