<svg fill="none" height="77" viewBox="0 0 77 77" width="77" xmlns="http://www.w3.org/2000/svg"><path d="m61.9662 0h-47.9274c-7.75342 0-14.0388 6.28538-14.0388 14.0388v47.9274c0 7.7534 6.28538 14.0388 14.0388 14.0388h47.9274c7.7534 0 14.0388-6.2854 14.0388-14.0388v-47.9274c0-7.75342-6.2854-14.0388-14.0388-14.0388z" fill="#ff316e"/><path d="m37.9973 68.0021c16.567 0 29.9972-13.4302 29.9972-29.9972 0-16.5671-13.4302-29.99727-29.9972-29.99727-16.5671 0-29.99727 13.43017-29.99727 29.99727 0 16.567 13.43017 29.9972 29.99727 29.9972z" fill="#fff"/><path clip-rule="evenodd" d="m25.7254 22.7032c.4502.4502.7032 1.0608.7032 1.6975 0 .6369-.253 1.2476-.7032 1.6978-1.561 1.561-2.7993 3.4141-3.6442 5.4535-.8449 2.0395-1.2796 4.2254-1.2796 6.433 0 2.2075.4347 4.3935 1.2796 6.4329.8449 2.0396 2.0832 3.8927 3.6442 5.4535.2295.2217.4124.4865.5383.7795.1257.293.1919.6081.1948.927.0028.3189-.058.635-.1788.93-.1206.2952-.299.5633-.5245.7889-.2255.2253-.4936.4037-.7886.5244-.2952.1208-.6114.1814-.9303.1787-.3188-.0027-.6338-.069-.9268-.1949-.2929-.1258-.558-.3088-.7794-.538-2.0069-2.007-3.5989-4.3895-4.685-7.0115s-1.6451-5.4324-1.6451-8.2705c0-2.8382.559-5.6484 1.6451-8.2706 1.0861-2.622 2.6781-5.0045 4.685-7.0112.4502-.4502 1.0608-.7032 1.6977-.7032.6368 0 1.2474.253 1.6976.7032zm23.773 0c.4504-.4502 1.061-.7032 1.6977-.7032.6368 0 1.2474.253 1.6978.7032 2.0069 2.0067 3.5987 4.3892 4.6849 7.0112 1.0861 2.6222 1.6452 5.4324 1.6452 8.2706 0 2.8381-.5591 5.6485-1.6452 8.2705-1.0862 2.622-2.678 5.0045-4.6849 7.0115-.2215.2292-.4865.4122-.7795.538-.293.1259-.6081.1922-.927.1949-.3187.0027-.635-.0579-.93-.1787-.2952-.1207-.5633-.2991-.7887-.5244-.2255-.2256-.4038-.4937-.5246-.7889-.1208-.295-.1814-.6111-.1787-.93s.069-.634.1949-.927.3088-.5578.5381-.7795c1.5611-1.5608 2.7993-3.4139 3.6442-5.4535.8449-2.0394 1.2797-4.2254 1.2797-6.4329 0-2.2076-.4348-4.3935-1.2797-6.433-.8449-2.0394-2.0831-3.8925-3.6442-5.4535-.4502-.4502-.703-1.0609-.703-1.6978 0-.6367.2528-1.2473.703-1.6975zm-16.9796 6.7908c.4502.4504.703 1.061.703 1.6977 0 .6368-.2528 1.2474-.703 1.6978-.6691.6689-1.1998 1.463-1.562 2.3372-.3621.8742-.5485 1.811-.5485 2.7571 0 .9462.1864 1.8831.5485 2.7571.3622.8741.8929 1.6682 1.562 2.3373.223.2232.3998.4879.5204.7793.1206.2915.1826.6039.1824.9193 0 .3153-.0623.6277-.1831.919-.1208.2914-.2977.5562-.5209.779-.2231.2229-.488.3997-.7794.5203-.2915.1206-.6037.1826-.9192.1826-.3155-.0001-.6277-.0623-.9191-.1831-.2913-.1209-.556-.2979-.779-.521-2.2508-2.2516-3.5154-5.3049-3.5154-8.4886 0-3.1836 1.2646-6.2371 3.5154-8.4886.223-.2233.4879-.4003.7793-.5213.2916-.1207.604-.1829.9197-.1829.3156 0 .628.0622.9194.1829.2917.121.5565.298.7795.5213zm10.1864 0c.2229-.2233.4878-.4005.7792-.5212.2917-.1208.6041-.1832.9197-.1832.3155 0 .628.0624.9195.1832.2916.1207.5563.2979.7794.5212 1.1152 1.115 2 2.4387 2.6035 3.8956s.9142 3.0184.9142 4.5954-.3107 3.1386-.9142 4.5955-1.4883 2.7806-2.6035 3.8956c-.4507.4506-1.0617.7037-1.6989.7037s-1.2484-.2531-1.6989-.7037c-.4506-.4507-.7037-1.0617-.7037-1.6989 0-.6373.2531-1.2484.7037-1.699 1.3504-1.3509 2.1091-3.1829 2.1091-5.0932 0-1.9102-.7587-3.7422-2.1091-5.0931-.2234-.2232-.4005-.4879-.5213-.7795-.1209-.2914-.1831-.604-.1831-.9195 0-.3156.0622-.628.1831-.9196.1208-.2915.2979-.5563.5213-.7793zm-5.0933 6.0897c.6369 0 1.2477.253 1.6981.7033.4502.4504.7033 1.0611.7033 1.698v.024c0 .6369-.2531 1.2477-.7033 1.6981-.4504.4502-1.0612.7033-1.6981.7033s-1.2476-.2531-1.6979-.7033c-.4504-.4504-.7033-1.0612-.7033-1.6981v-.024c0-.6369.2529-1.2476.7033-1.698.4503-.4503 1.061-.7033 1.6979-.7033z" fill="#ff316e" fill-rule="evenodd"/></svg>