<svg fill="none" viewBox=".08 .33 75.79 75.79" xmlns="http://www.w3.org/2000/svg"><rect fill="#f6effb" height="75.795" rx="14" width="75.795" x=".081" y=".325"/><path clip-rule="evenodd" d="m25.3278 21.9428c.4791.4793.7483 1.1292.7483 1.8068 0 .6777-.2692 1.3276-.7483 1.8068-1.6613 1.6612-2.9792 3.6333-3.8783 5.8038-.8991 2.1706-1.3619 4.4969-1.3619 6.8463s.4628 4.6757 1.3619 6.8463c.8991 2.1705 2.217 4.1426 3.8783 5.8038.2441.2357.4388.5177.5727.8295.134.3118.2045.6472.2074.9865.003.3393-.0617.6758-.1902.9899s-.3183.5994-.5582.8394c-.24.2399-.5253.4297-.8394.5582-.314.1285-.6505.1931-.9899.1902-.3393-.003-.6746-.0735-.9864-.2074s-.5938-.3286-.8296-.5727c-2.1358-2.1358-3.83-4.6713-4.9858-7.4618-1.1559-2.7906-1.7509-5.7815-1.7509-8.8019 0-3.0205.595-6.0113 1.7509-8.8019 1.1558-2.7905 2.85-5.326 4.9858-7.4618.4793-.4791 1.1292-.7482 1.8068-.7482.6777 0 1.3276.2691 1.8068.7482zm25.3002 0c.4793-.4791 1.1292-.7482 1.8068-.7482s1.3276.2691 1.8068.7482c2.1358 2.1358 3.83 4.6713 4.9859 7.4618 1.1559 2.7906 1.7508 5.7814 1.7508 8.8019 0 3.0204-.5949 6.0113-1.7508 8.8019-1.1559 2.7905-2.8501 5.326-4.9859 7.4618-.2357.2441-.5177.4388-.8295.5727s-.6472.2044-.9865.2074c-.3393.0029-.6758-.0617-.9899-.1902s-.5994-.3183-.8394-.5582c-.2399-.24-.4297-.5253-.5582-.8394s-.1931-.6506-.1902-.9899c.003-.3393.0735-.6747.2074-.9865s.3286-.5938.5727-.8295c1.6614-1.6612 2.9792-3.6333 3.8783-5.8038.8992-2.1706 1.3619-4.4969 1.3619-6.8463s-.4627-4.6757-1.3619-6.8463c-.8991-2.1705-2.2169-4.1426-3.8783-5.8038-.4791-.4792-.7482-1.1291-.7482-1.8068 0-.6776.2691-1.3275.7482-1.8068zm-18.0705 7.2272c.4791.4792.7483 1.1291.7483 1.8068 0 .6776-.2692 1.3275-.7483 1.8068-.712.7119-1.2769 1.5571-1.6622 2.4874-.3854.9302-.5838 1.9273-.5838 2.9342s.1984 2.004.5838 2.9342c.3853.9303.9502 1.7755 1.6622 2.4875.2373.2374.4255.5193.5538.8294.1284.3102.1944.6426.1943.9783-.0002.3356-.0664.668-.195.9781-.1285.31-.3169.5918-.5543.829-.2375.2373-.5193.4255-.8295.5538-.3102.1284-.6426.1944-.9782.1943-.3357-.0002-.6681-.0664-.9781-.195-.3101-.1285-.5918-.3169-.8291-.5543-2.3955-2.3963-3.7412-5.6458-3.7412-9.034s1.3457-6.6378 3.7412-9.034c.2373-.2376.5192-.4261.8294-.5547.3103-.1286.6428-.1948.9787-.1948.3358 0 .6684.0662.9786.1948s.5921.3171.8294.5547zm10.8408 0c.2373-.2376.5192-.4261.8294-.5547.3103-.1286.6428-.1948.9787-.1948.3358 0 .6683.0662.9786.1948.3102.1286.5921.3171.8294.5547 1.1869 1.1866 2.1284 2.5953 2.7708 4.1458s.973 3.2124.973 4.8907-.3306 3.3402-.973 4.8907-1.5839 2.9592-2.7708 4.1458c-.4795.4795-1.1299.7489-1.808.7489-.6782 0-1.3286-.2694-1.8081-.7489s-.7489-1.1299-.7489-1.8081c0-.6781.2694-1.3285.7489-1.808 1.4373-1.4378 2.2447-3.3875 2.2447-5.4204s-.8074-3.9827-2.2447-5.4204c-.2376-.2373-.4261-.5192-.5547-.8294-.1286-.3103-.1948-.6428-.1948-.9786 0-.3359.0662-.6684.1948-.9787.1286-.3102.3171-.5921.5547-.8294zm-5.4204 6.4809c.6778 0 1.3278.2693 1.8071.7485.4792.4793.7485 1.1293.7485 1.8071v.0256c0 .6777-.2693 1.3278-.7485 1.807-.4793.4793-1.1293.7485-1.8071.7485s-1.3278-.2692-1.807-.7485c-.4793-.4792-.7486-1.1293-.7486-1.807v-.0256c0-.6778.2693-1.3278.7486-1.8071.4792-.4792 1.1292-.7485 1.807-.7485z" fill="#ff7427" fill-rule="evenodd"/></svg>