<svg xmlns="http://www.w3.org/2000/svg" fill="none" viewBox="0.08 0.33 75.79 75.79"><rect x=".081" y=".325" width="75.795" height="75.795" rx="14" fill="#F6EFFB"/><path fill-rule="evenodd" clip-rule="evenodd" d="M25.3278 21.9428C25.8069 22.4221 26.0761 23.072 26.0761 23.7496C26.0761 24.4273 25.8069 25.0772 25.3278 25.5564C23.6665 27.2176 22.3486 29.1897 21.4495 31.3602C20.5504 33.5308 20.0876 35.8571 20.0876 38.2065C20.0876 40.5559 20.5504 42.8822 21.4495 45.0528C22.3486 47.2233 23.6665 49.1954 25.3278 50.8566C25.5719 51.0923 25.7666 51.3743 25.9005 51.6861C26.0345 51.9979 26.105 52.3333 26.1079 52.6726C26.1109 53.0119 26.0462 53.3484 25.9177 53.6625C25.7892 53.9766 25.5994 54.2619 25.3595 54.5019C25.1195 54.7418 24.8342 54.9316 24.5201 55.0601C24.2061 55.1886 23.8696 55.2532 23.5302 55.2503C23.1909 55.2473 22.8556 55.1768 22.5438 55.0429C22.232 54.909 21.95 54.7143 21.7142 54.4702C19.5784 52.3344 17.8842 49.7989 16.7284 47.0084C15.5725 44.2178 14.9775 41.2269 14.9775 38.2065C14.9775 35.186 15.5725 32.1952 16.7284 29.4046C17.8842 26.6141 19.5784 24.0786 21.7142 21.9428C22.1935 21.4637 22.8434 21.1946 23.521 21.1946C24.1987 21.1946 24.8486 21.4637 25.3278 21.9428V21.9428ZM50.628 21.9428C51.1073 21.4637 51.7572 21.1946 52.4348 21.1946C53.1124 21.1946 53.7624 21.4637 54.2416 21.9428C56.3774 24.0786 58.0716 26.6141 59.2275 29.4046C60.3834 32.1952 60.9783 35.186 60.9783 38.2065C60.9783 41.2269 60.3834 44.2178 59.2275 47.0084C58.0716 49.7989 56.3774 52.3344 54.2416 54.4702C54.0059 54.7143 53.7239 54.909 53.4121 55.0429C53.1003 55.1768 52.7649 55.2473 52.4256 55.2503C52.0863 55.2532 51.7498 55.1886 51.4357 55.0601C51.1216 54.9316 50.8363 54.7418 50.5963 54.5019C50.3564 54.2619 50.1666 53.9766 50.0381 53.6625C49.9096 53.3484 49.845 53.0119 49.8479 52.6726C49.8509 52.3333 49.9214 51.9979 50.0553 51.6861C50.1892 51.3743 50.3839 51.0923 50.628 50.8566C52.2894 49.1954 53.6072 47.2233 54.5063 45.0528C55.4055 42.8822 55.8682 40.5559 55.8682 38.2065C55.8682 35.8571 55.4055 33.5308 54.5063 31.3602C53.6072 29.1897 52.2894 27.2176 50.628 25.5564C50.1489 25.0772 49.8798 24.4273 49.8798 23.7496C49.8798 23.072 50.1489 22.4221 50.628 21.9428V21.9428ZM32.5575 29.17C33.0366 29.6492 33.3058 30.2991 33.3058 30.9768C33.3058 31.6544 33.0366 32.3043 32.5575 32.7836C31.8455 33.4955 31.2806 34.3407 30.8953 35.271C30.5099 36.2012 30.3115 37.1983 30.3115 38.2052C30.3115 39.2121 30.5099 40.2092 30.8953 41.1394C31.2806 42.0697 31.8455 42.9149 32.5575 43.6269C32.7948 43.8643 32.983 44.1462 33.1113 44.4563C33.2397 44.7665 33.3057 45.0989 33.3056 45.4346C33.3054 45.7702 33.2392 46.1026 33.1106 46.4127C32.9821 46.7227 32.7937 47.0045 32.5563 47.2417C32.3188 47.479 32.037 47.6672 31.7268 47.7955C31.4166 47.9239 31.0842 47.9899 30.7486 47.9898C30.4129 47.9896 30.0805 47.9234 29.7705 47.7948C29.4604 47.6663 29.1787 47.4779 28.9414 47.2405C26.5459 44.8442 25.2002 41.5947 25.2002 38.2065C25.2002 34.8183 26.5459 31.5687 28.9414 29.1725C29.1787 28.9349 29.4606 28.7464 29.7708 28.6178C30.0811 28.4892 30.4136 28.423 30.7495 28.423C31.0853 28.423 31.4179 28.4892 31.7281 28.6178C32.0383 28.7464 32.3202 28.9349 32.5575 29.1725V29.17ZM43.3983 29.17C43.6356 28.9324 43.9175 28.7439 44.2277 28.6153C44.538 28.4867 44.8705 28.4205 45.2064 28.4205C45.5422 28.4205 45.8747 28.4867 46.185 28.6153C46.4952 28.7439 46.7771 28.9324 47.0144 29.17C48.2013 30.3566 49.1428 31.7653 49.7852 33.3158C50.4276 34.8663 50.7582 36.5282 50.7582 38.2065C50.7582 39.8848 50.4276 41.5467 49.7852 43.0972C49.1428 44.6477 48.2013 46.0564 47.0144 47.243C46.5349 47.7225 45.8845 47.9919 45.2064 47.9919C44.5282 47.9919 43.8778 47.7225 43.3983 47.243C42.9188 46.7635 42.6494 46.1131 42.6494 45.4349C42.6494 44.7568 42.9188 44.1064 43.3983 43.6269C44.8356 42.1891 45.643 40.2394 45.643 38.2065C45.643 36.1736 44.8356 34.2238 43.3983 32.7861C43.1607 32.5488 42.9722 32.2669 42.8436 31.9567C42.715 31.6464 42.6488 31.3139 42.6488 30.9781C42.6488 30.6422 42.715 30.3097 42.8436 29.9994C42.9722 29.6892 43.1607 29.4073 43.3983 29.17V29.17ZM37.9779 35.6509C38.6557 35.6509 39.3057 35.9202 39.785 36.3994C40.2642 36.8787 40.5335 37.5287 40.5335 38.2065V38.2321C40.5335 38.9098 40.2642 39.5599 39.785 40.0391C39.3057 40.5184 38.6557 40.7876 37.9779 40.7876C37.3001 40.7876 36.6501 40.5184 36.1709 40.0391C35.6916 39.5599 35.4223 38.9098 35.4223 38.2321V38.2065C35.4223 37.5287 35.6916 36.8787 36.1709 36.3994C36.6501 35.9202 37.3001 35.6509 37.9779 35.6509V35.6509Z" fill="#A334FB"/></svg>