<svg width="77" height="77" viewBox="0 0 77 77" fill="none" xmlns="http://www.w3.org/2000/svg">
<path d="M61.9662 0H14.0388C6.28538 0 0 6.28538 0 14.0388V61.9662C0 69.7196 6.28538 76.005 14.0388 76.005H61.9662C69.7196 76.005 76.005 69.7196 76.005 61.9662V14.0388C76.005 6.28538 69.7196 0 61.9662 0Z" fill="#17DF9D"/>
<path d="M37.9973 68.0021C54.5643 68.0021 67.9945 54.5719 67.9945 38.0049C67.9945 21.4378 54.5643 8.00763 37.9973 8.00763C21.4302 8.00763 8.00003 21.4378 8.00003 38.0049C8.00003 54.5719 21.4302 68.0021 37.9973 68.0021Z" fill="white"/>
<path fill-rule="evenodd" clip-rule="evenodd" d="M25.7254 22.7032C26.1756 23.1534 26.4286 23.764 26.4286 24.4007C26.4286 25.0376 26.1756 25.6483 25.7254 26.0985C24.1644 27.6595 22.9261 29.5126 22.0812 31.552C21.2363 33.5915 20.8016 35.7774 20.8016 37.985C20.8016 40.1925 21.2363 42.3785 22.0812 44.4179C22.9261 46.4575 24.1644 48.3106 25.7254 49.8714C25.9549 50.0931 26.1378 50.3579 26.2637 50.6509C26.3894 50.9439 26.4556 51.259 26.4585 51.5779C26.4613 51.8968 26.4005 52.2129 26.2797 52.5079C26.1591 52.8031 25.9807 53.0712 25.7552 53.2968C25.5297 53.5221 25.2616 53.7005 24.9666 53.8212C24.6714 53.942 24.3552 54.0026 24.0363 53.9999C23.7175 53.9972 23.4025 53.9309 23.1095 53.805C22.8166 53.6792 22.5515 53.4962 22.3301 53.267C20.3232 51.26 18.7312 48.8775 17.6451 46.2555C16.559 43.6335 16 40.8231 16 37.985C16 35.1468 16.559 32.3366 17.6451 29.7144C18.7312 27.0924 20.3232 24.7099 22.3301 22.7032C22.7803 22.253 23.3909 22 24.0278 22C24.6646 22 25.2752 22.253 25.7254 22.7032ZM49.4984 22.7032C49.9488 22.253 50.5594 22 51.1961 22C51.8329 22 52.4435 22.253 52.8939 22.7032C54.9008 24.7099 56.4926 27.0924 57.5788 29.7144C58.6649 32.3366 59.224 35.1468 59.224 37.985C59.224 40.8231 58.6649 43.6335 57.5788 46.2555C56.4926 48.8775 54.9008 51.26 52.8939 53.267C52.6724 53.4962 52.4074 53.6792 52.1144 53.805C51.8214 53.9309 51.5063 53.9972 51.1874 53.9999C50.8687 54.0026 50.5524 53.942 50.2574 53.8212C49.9622 53.7005 49.6941 53.5221 49.4687 53.2968C49.2432 53.0712 49.0649 52.8031 48.9441 52.5079C48.8233 52.2129 48.7627 51.8968 48.7654 51.5779C48.7681 51.259 48.8344 50.9439 48.9603 50.6509C49.0862 50.3579 49.2691 50.0931 49.4984 49.8714C51.0595 48.3106 52.2977 46.4575 53.1426 44.4179C53.9875 42.3785 54.4223 40.1925 54.4223 37.985C54.4223 35.7774 53.9875 33.5915 53.1426 31.552C52.2977 29.5126 51.0595 27.6595 49.4984 26.0985C49.0482 25.6483 48.7954 25.0376 48.7954 24.4007C48.7954 23.764 49.0482 23.1534 49.4984 22.7032ZM32.5188 29.494C32.969 29.9444 33.2218 30.555 33.2218 31.1917C33.2218 31.8285 32.969 32.4391 32.5188 32.8895C31.8497 33.5584 31.319 34.3525 30.9568 35.2267C30.5947 36.1009 30.4083 37.0377 30.4083 37.9838C30.4083 38.93 30.5947 39.8669 30.9568 40.7409C31.319 41.615 31.8497 42.4091 32.5188 43.0782C32.7418 43.3014 32.9186 43.5661 33.0392 43.8575C33.1598 44.149 33.2218 44.4614 33.2216 44.7768C33.2216 45.0921 33.1593 45.4045 33.0385 45.6958C32.9177 45.9872 32.7408 46.252 32.5176 46.4748C32.2945 46.6977 32.0296 46.8745 31.7382 46.9951C31.4467 47.1157 31.1345 47.1777 30.819 47.1777C30.5035 47.1776 30.1913 47.1154 29.8999 46.9946C29.6086 46.8737 29.3439 46.6967 29.1209 46.4736C26.8701 44.222 25.6055 41.1687 25.6055 37.985C25.6055 34.8014 26.8701 31.7479 29.1209 29.4964C29.3439 29.2731 29.6088 29.0961 29.9002 28.9751C30.1918 28.8544 30.5042 28.7922 30.8199 28.7922C31.1355 28.7922 31.4479 28.8544 31.7393 28.9751C32.031 29.0961 32.2958 29.2731 32.5188 29.4964V29.494ZM42.7052 29.494C42.9281 29.2707 43.193 29.0935 43.4844 28.9728C43.7761 28.852 44.0885 28.7896 44.4041 28.7896C44.7196 28.7896 45.0321 28.852 45.3236 28.9728C45.6152 29.0935 45.8799 29.2707 46.103 29.494C47.2182 30.609 48.103 31.9327 48.7065 33.3896C49.31 34.8465 49.6207 36.408 49.6207 37.985C49.6207 39.562 49.31 41.1236 48.7065 42.5805C48.103 44.0374 47.2182 45.3611 46.103 46.4761C45.6523 46.9267 45.0413 47.1798 44.4041 47.1798C43.7669 47.1798 43.1557 46.9267 42.7052 46.4761C42.2546 46.0254 42.0015 45.4144 42.0015 44.7772C42.0015 44.1399 42.2546 43.5288 42.7052 43.0782C44.0556 41.7273 44.8143 39.8953 44.8143 37.985C44.8143 36.0748 44.0556 34.2428 42.7052 32.8919C42.4818 32.6687 42.3047 32.404 42.1839 32.1124C42.063 31.821 42.0008 31.5084 42.0008 31.1929C42.0008 30.8773 42.063 30.5649 42.1839 30.2733C42.3047 29.9818 42.4818 29.717 42.7052 29.494ZM37.6119 35.5837C38.2488 35.5837 38.8596 35.8367 39.31 36.287C39.7602 36.7374 40.0133 37.3481 40.0133 37.985V38.009C40.0133 38.6459 39.7602 39.2567 39.31 39.7071C38.8596 40.1573 38.2488 40.4104 37.6119 40.4104C36.975 40.4104 36.3643 40.1573 35.914 39.7071C35.4636 39.2567 35.2107 38.6459 35.2107 38.009V37.985C35.2107 37.3481 35.4636 36.7374 35.914 36.287C36.3643 35.8367 36.975 35.5837 37.6119 35.5837Z" fill="#17DF9D"/>
</svg>
