<svg xmlns="http://www.w3.org/2000/svg" fill="none" viewBox="0.46 0.88 43.21 43.21"><circle opacity=".879" cx="22.064" cy="22.485" r="21.603" fill="url(#paint0_linear)"/><path fill-rule="evenodd" clip-rule="evenodd" d="M23.5071 16.9395C25.0653 16.9395 26.3337 18.1801 26.3785 19.7274L26.3797 19.8121V32.4194C26.3797 34.0059 25.0936 35.292 23.5071 35.292C21.949 35.292 20.6806 34.0514 20.6358 32.5041L20.6346 32.4194L20.6345 22.6846H17.1012C15.5431 22.6846 14.2747 21.444 14.2299 19.8967L14.2286 19.8121C14.2286 18.2539 15.4692 16.9855 17.0165 16.9407L17.1012 16.9395H23.5071ZM23.0303 9.21875C24.7992 9.21875 26.2333 10.6528 26.2333 12.4217C26.2333 14.1907 24.7992 15.6247 23.0303 15.6247C21.2613 15.6247 19.8273 14.1907 19.8273 12.4217C19.8273 10.6528 21.2613 9.21875 23.0303 9.21875Z" fill="#fff"/><defs><linearGradient id="paint0_linear" x1="37.291" y1="11.108" x2="8.76" y2="43.523" gradientUnits="userSpaceOnUse"><stop stop-color="#B127EE"/><stop offset=".512" stop-color="#277FEE"/><stop offset="1" stop-color="#28CB9E"/></linearGradient></defs></svg>