<svg xmlns="http://www.w3.org/2000/svg" fill="none" viewBox="0.46 0.09 43.21 43.21"><circle cx="22.064" cy="21.695" r="21.603" fill="#17DF9D"/><path fill-rule="evenodd" clip-rule="evenodd" d="M15.0856 12.7143C15.3499 12.9786 15.4984 13.3371 15.4984 13.7109C15.4984 14.0848 15.3499 14.4433 15.0856 14.7076C14.1692 15.624 13.4422 16.7119 12.9462 17.9092C12.4502 19.1065 12.195 20.3898 12.195 21.6858C12.195 22.9818 12.4502 24.2651 12.9462 25.4624C13.4422 26.6598 14.1692 27.7477 15.0856 28.664C15.2203 28.7941 15.3277 28.9496 15.4016 29.1216C15.4754 29.2936 15.5143 29.4786 15.516 29.6658C15.5176 29.853 15.4819 30.0386 15.411 30.2118C15.3402 30.3851 15.2355 30.5425 15.1031 30.6749C14.9707 30.8072 14.8133 30.9119 14.6401 30.9828C14.4668 31.0537 14.2812 31.0893 14.094 31.0877C13.9068 31.0861 13.7219 31.0472 13.5499 30.9733C13.3779 30.8994 13.2223 30.792 13.0923 30.6574C11.9141 29.4792 10.9795 28.0805 10.3419 26.5412C9.70428 25.0019 9.3761 23.352 9.3761 21.6858C9.3761 20.0196 9.70428 18.3698 10.3419 16.8304C10.9795 15.2911 11.9141 13.8924 13.0923 12.7143C13.3566 12.45 13.7151 12.3015 14.089 12.3015C14.4628 12.3015 14.8213 12.45 15.0856 12.7143V12.7143ZM29.042 12.7143C29.3064 12.45 29.6649 12.3015 30.0387 12.3015C30.4125 12.3015 30.771 12.45 31.0354 12.7143C32.2136 13.8924 33.1481 15.2911 33.7858 16.8304C34.4234 18.3698 34.7516 20.0196 34.7516 21.6858C34.7516 23.352 34.4234 25.0019 33.7858 26.5412C33.1481 28.0805 32.2136 29.4792 31.0354 30.6574C30.9054 30.792 30.7498 30.8994 30.5778 30.9733C30.4058 31.0472 30.2208 31.0861 30.0336 31.0877C29.8465 31.0893 29.6608 31.0537 29.4876 30.9828C29.3143 30.9119 29.1569 30.8072 29.0246 30.6749C28.8922 30.5425 28.7875 30.3851 28.7166 30.2118C28.6457 30.0386 28.6101 29.853 28.6117 29.6658C28.6133 29.4786 28.6522 29.2936 28.7261 29.1216C28.8 28.9496 28.9074 28.7941 29.042 28.664C29.9585 27.7477 30.6854 26.6598 31.1814 25.4624C31.6774 24.2651 31.9327 22.9818 31.9327 21.6858C31.9327 20.3898 31.6774 19.1065 31.1814 17.9092C30.6854 16.7119 29.9585 15.624 29.042 14.7076C28.7777 14.4433 28.6293 14.0848 28.6293 13.7109C28.6293 13.3371 28.7777 12.9786 29.042 12.7143V12.7143ZM19.0738 16.701C19.3381 16.9654 19.4865 17.3239 19.4865 17.6977C19.4865 18.0715 19.3381 18.43 19.0738 18.6944C18.681 19.0871 18.3694 19.5533 18.1568 20.0665C17.9442 20.5797 17.8348 21.1297 17.8348 21.6851C17.8348 22.2406 17.9442 22.7906 18.1568 23.3037C18.3694 23.8169 18.681 24.2831 19.0738 24.6759C19.2047 24.8069 19.3085 24.9623 19.3793 25.1334C19.4501 25.3045 19.4865 25.4879 19.4864 25.6731C19.4864 25.8582 19.4498 26.0416 19.3789 26.2126C19.308 26.3837 19.2041 26.5391 19.0731 26.6699C18.9421 26.8008 18.7866 26.9046 18.6155 26.9754C18.4444 27.0462 18.2611 27.0826 18.0759 27.0826C17.8907 27.0825 17.7074 27.046 17.5363 26.9751C17.3653 26.9041 17.2099 26.8002 17.079 26.6692C15.7576 25.3474 15.0152 23.5549 15.0152 21.6858C15.0152 19.8168 15.7576 18.0242 17.079 16.7024C17.2099 16.5713 17.3654 16.4674 17.5365 16.3964C17.7077 16.3255 17.8911 16.289 18.0764 16.289C18.2617 16.289 18.4451 16.3255 18.6162 16.3964C18.7874 16.4674 18.9429 16.5713 19.0738 16.7024V16.701ZM25.0539 16.701C25.1848 16.5699 25.3403 16.4659 25.5114 16.395C25.6826 16.3241 25.866 16.2875 26.0513 16.2875C26.2365 16.2875 26.42 16.3241 26.5911 16.395C26.7623 16.4659 26.9177 16.5699 27.0487 16.701C27.7034 17.3556 28.2228 18.1327 28.5771 18.988C28.9314 19.8433 29.1138 20.76 29.1138 21.6858C29.1138 22.6116 28.9314 23.5284 28.5771 24.3837C28.2228 25.239 27.7034 26.0161 27.0487 26.6707C26.7841 26.9352 26.4254 27.0838 26.0513 27.0838C25.6772 27.0838 25.3184 26.9352 25.0539 26.6707C24.7894 26.4061 24.6408 26.0474 24.6408 25.6733C24.6408 25.2992 24.7894 24.9404 25.0539 24.6759C25.8467 23.8828 26.2921 22.8073 26.2921 21.6858C26.2921 20.5644 25.8467 19.4889 25.0539 18.6958C24.9228 18.5648 24.8188 18.4094 24.7479 18.2382C24.6769 18.0671 24.6404 17.8836 24.6404 17.6984C24.6404 17.5131 24.6769 17.3297 24.7479 17.1585C24.8188 16.9874 24.9228 16.8319 25.0539 16.701V16.701ZM22.0638 20.2761C22.4377 20.2761 22.7963 20.4246 23.0607 20.689C23.325 20.9534 23.4736 21.3119 23.4736 21.6858V21.6999C23.4736 22.0738 23.325 22.4324 23.0607 22.6968C22.7963 22.9611 22.4377 23.1097 22.0638 23.1097C21.6899 23.1097 21.3314 22.9611 21.067 22.6968C20.8026 22.4324 20.6541 22.0738 20.6541 21.6999V21.6858C20.6541 21.3119 20.8026 20.9534 21.067 20.689C21.3314 20.4246 21.6899 20.2761 22.0638 20.2761V20.2761Z" fill="#fff"/></svg>