<svg fill="none" viewBox=".76 .62 43.45 43.45" xmlns="http://www.w3.org/2000/svg"><rect fill="#000000" height="43.4479" rx="10" width="43.4479" x=".764618" y=".621826"/><path d="m26.4863 15.1336c.8753-.8752 2.3004-.8752 3.1758 0 .8753.8752.8753 2.3 0 3.1752-.5071.507-1.201.7364-1.9055.635-.032-.0053-.0694-.0053-.1014 0-.2082-.0266-.427 0-.6352.0961-.2935.1334-.5017.3789-.6031.6617-.1014.2775-.0961.5924.0374.8752.7526 1.6276.4056 3.5754-.8647 4.8455s-3.2184 1.617-4.8464.8645c-.2935-.1334-.6084-.1387-.8913-.032-.2776.1014-.5124.3095-.6458.5977-.0854.1868-.1175.3789-.1068.571-.0053.0374-.0053.0747 0 .1121.1174.7151-.1174 1.4462-.6298 1.9585-.8753.8751-2.3004.8751-3.1758 0-.427-.427-.6565-.9873-.6565-1.5903 0-.5977.2349-1.1634.6565-1.5903.5071-.507 1.201-.7364 1.9055-.635h.0374c.0747.016.1494.0267.2295.0267.1654 0 .3309-.0321.4857-.1068.2882-.1334.491-.3682.5978-.6403.1067-.2829.1067-.6031-.0321-.8966-.7525-1.6276-.4056-3.5754.8647-4.8455s3.2185-1.6169 4.8464-.8645c.2882.1334.6084.1387.886.0374.2775-.1014.5177-.3096.6512-.5977.1014-.2242.1281-.4643.0907-.6938v-.0053c-.1174-.7151.1174-1.4462.6298-1.9585zm-2.2204 8.9653c.9714-.9713.9714-2.5455 0-3.5168-.9714-.9712-2.5459-.9712-3.5173 0-.9714.9713-.9714 2.5455 0 3.5168.9714.9712 2.5459.9712 3.5173 0zm-1.7773-16.78323c8.2997 0 15.0301 6.72933 15.0301 15.02753s-6.7251 15.0328-15.0301 15.0328-15.0302-6.7293-15.0302-15.0328c0-8.3036 6.7305-15.02753 15.0302-15.02753zm8.0114 11.83093c1.3291-1.3287 1.3291-3.4793 0-4.8081-1.329-1.3288-3.48-1.3288-4.809 0-.491.4909-.8006 1.0993-.9287 1.7343-2.4072-.9072-5.1719-.3308-7.0134 1.5102-1.8414 1.8411-2.4178 4.6054-1.5051 7.0175-.6405.1281-1.249.4376-1.7453.9339-1.3291 1.3288-1.3291 3.4794 0 4.8081 1.329 1.3288 3.48 1.3288 4.809 0 .4964-.4962.8113-1.1153.934-1.7556.7473.2774 1.5265.4162 2.3005.4162 1.7239 0 3.4266-.6671 4.6915-1.9318 1.8308-1.8304 2.4126-4.5787 1.5212-6.9854.6352-.1335 1.249-.443 1.7453-.9393z" fill="#fff"/></svg>