<svg width="513" height="513" viewBox="0 0 513 513" fill="none" xmlns="http://www.w3.org/2000/svg">
<rect width="513" height="513" rx="118" fill="#131419"/>
<path d="M300.299 177.483C309.89 167.895 325.503 167.895 335.093 177.483C344.684 187.071 344.684 202.682 335.093 212.27C329.538 217.825 321.936 220.338 314.217 219.228C313.866 219.17 313.457 219.17 313.106 219.228C310.825 218.935 308.428 219.228 306.147 220.28C302.931 221.742 300.65 224.431 299.539 227.53C298.428 230.57 298.487 234.02 299.949 237.119C308.194 254.951 304.393 276.291 290.475 290.206C276.558 304.121 255.214 307.921 237.378 299.677C234.162 298.216 230.712 298.157 227.613 299.326C224.571 300.437 221.998 302.718 220.537 305.875C219.601 307.921 219.25 310.026 219.367 312.131C219.308 312.54 219.308 312.949 219.367 313.358C220.654 321.193 218.081 329.202 212.467 334.816C202.877 344.404 187.263 344.404 177.673 334.816C172.995 330.138 170.48 323.999 170.48 317.393C170.48 310.844 173.053 304.647 177.673 299.97C183.228 294.415 190.83 291.901 198.549 293.012C198.666 293.012 198.783 293.012 198.959 293.012C199.777 293.188 200.596 293.304 201.473 293.304C203.286 293.304 205.099 292.954 206.794 292.135C209.952 290.673 212.174 288.101 213.344 285.119C214.513 282.021 214.513 278.512 212.993 275.297C204.748 257.465 208.549 236.125 222.466 222.21C236.384 208.295 257.728 204.494 275.563 212.738C278.721 214.2 282.23 214.258 285.271 213.147C288.312 212.036 290.943 209.756 292.405 206.599C293.516 204.144 293.809 201.513 293.399 198.999V198.94C292.113 191.106 294.686 183.096 300.299 177.483ZM275.973 275.706C286.616 265.065 286.616 247.818 275.973 237.177C265.33 226.536 248.08 226.536 237.437 237.177C226.794 247.818 226.794 265.065 237.437 275.706C248.08 286.347 265.33 286.347 275.973 275.706ZM256.5 91.83C347.432 91.83 421.172 165.556 421.172 256.471C421.172 347.386 347.491 421.17 256.5 421.17C165.51 421.17 91.8286 347.444 91.8286 256.471C91.8286 165.497 165.568 91.83 256.5 91.83ZM344.274 221.449C358.835 206.892 358.835 183.329 344.274 168.772C329.713 154.213 306.147 154.213 291.586 168.772C286.206 174.15 282.815 180.815 281.411 187.773C255.038 177.834 224.747 184.148 204.572 204.319C184.398 224.49 178.082 254.775 188.082 281.202C181.065 282.605 174.398 285.996 168.96 291.434C154.399 305.991 154.399 329.554 168.96 344.111C183.52 358.67 207.087 358.67 221.648 344.111C227.086 338.674 230.536 331.892 231.881 324.876C240.068 327.916 248.606 329.437 257.085 329.437C275.973 329.437 294.627 322.128 308.486 308.272C328.544 288.218 334.918 258.108 325.152 231.74C332.111 230.278 338.836 226.887 344.274 221.449Z" fill="white"/>
</svg>
