<svg fill="none" viewBox=".04 .59 182.38 75.79" xmlns="http://www.w3.org/2000/svg"><rect fill="#f6effb" height="75.7946" rx="37.8973" width="182.379" x=".040649" y=".589188"/><g fill="#a334fb"><path d="m45.3095 25.6602c1.5567-1.5565 4.0911-1.5565 5.6478 0 1.5567 1.5564 1.5567 4.0903 0 5.6468-.9018.9016-2.1357 1.3096-3.3887 1.1293-.057-.0095-.1234-.0095-.1804 0-.3701-.0474-.7593 0-1.1295.1709-.5221.2372-.8923.6738-1.0726 1.1768-.1804.4935-.1709 1.0534.0664 1.5564 1.3384 2.8946.7214 6.3586-1.5377 8.6173s-5.7237 2.8756-8.6188 1.5375c-.5221-.2373-1.0821-.2468-1.5852-.057-.4936.1803-.9113.5505-1.1486 1.0629-.1518.3322-.2088.6739-.1898 1.0155-.0095.0664-.0095.1329 0 .1993.2088 1.2717-.2088 2.5719-1.1201 3.483-1.5567 1.5564-4.0911 1.5564-5.6478 0-.7594-.7592-1.1675-1.7557-1.1675-2.8281 0-1.063.4176-2.069 1.1675-2.8282.9018-.9016 2.1357-1.3097 3.3887-1.1294h.0664c.1329.0285.2658.0475.4082.0475.2943 0 .5885-.0569.8638-.1898.5126-.2373.8733-.6548 1.0631-1.1389.1898-.503.1898-1.0724-.0569-1.5944-1.3384-2.8945-.7215-6.3585 1.5377-8.6173 2.2591-2.2587 5.7237-2.8756 8.6188-1.5374.5126.2373 1.0821.2467 1.5757.0664s.9207-.5504 1.158-1.0629c.1804-.3986.2279-.8257.1614-1.2338v-.0095c-.2088-1.2717.2088-2.5719 1.1201-3.4829zm-3.9487 15.9439c1.7275-1.7273 1.7275-4.527 0-6.2542-1.7276-1.7273-4.5278-1.7273-6.2553 0-1.7276 1.7272-1.7276 4.5269 0 6.2542 1.7275 1.7272 4.5277 1.7272 6.2553 0zm-3.1609-29.8474c14.7602 0 26.7298 11.9674 26.7298 26.725s-11.9601 26.7346-26.7298 26.7346-26.7298-11.9675-26.7298-26.7346 11.9695-26.725 26.7298-26.725zm14.2476 21.0403c2.3636-2.3632 2.3636-6.1878 0-8.5509-2.3635-2.3631-6.1888-2.3631-8.5523 0-.8733.8731-1.4239 1.955-1.6517 3.0844-4.2809-1.6134-9.1978-.5884-12.4726 2.6858s-4.2999 8.1902-2.6768 12.4799c-1.139.2278-2.2211.7782-3.1039 1.6608-2.3635 2.3631-2.3635 6.1878 0 8.5509s6.1888 2.3631 8.5524 0c.8828-.8826 1.4428-1.9835 1.6611-3.1224 1.3289.4935 2.7147.7403 4.0911.7403 3.066 0 6.0939-1.1863 8.3436-3.4355 3.2558-3.2553 4.2904-8.1428 2.7052-12.423 1.1296-.2373 2.2212-.7877 3.1039-1.6703z"/><path d="m106.838 38.4288c0-9.3455-5.48-15.172-13.0371-15.172-7.5572 0-13.0376 5.8265-13.0376 15.172s5.4804 15.172 13.0376 15.172c7.5571 0 13.0371-5.8265 13.0371-15.172zm-3.461 0c0 7.6725-4.2111 11.8261-9.5761 11.8261s-9.5763-4.1536-9.5763-11.8261c0-7.6726 4.2113-11.8261 9.5763-11.8261s9.5761 4.1535 9.5761 11.8261z"/><path d="m129.005 31.0447h3.461c-.158-4.4564-4.268-7.7879-9.98-7.7879-5.653 0-10.095 3.2882-10.095 8.2494 0 3.9805 2.884 6.3457 7.499 7.6725l3.635 1.0384c3.115.8653 5.884 1.9614 5.884 4.9035 0 3.2306-3.115 5.365-7.211 5.365-3.519 0-6.634-1.5575-6.923-4.9035h-3.692c.346 4.8459 4.269 8.1341 10.615 8.1341 6.807 0 10.672-3.7497 10.672-8.5379 0-5.5381-5.249-7.3264-8.307-8.134l-3-.8077c-2.192-.5769-5.711-1.7306-5.711-4.9035 0-2.8267 2.596-4.9035 6.519-4.9035 3.577 0 6.288 1.7018 6.634 4.6151z"/><path d="m154.904 31.0447h3.461c-.159-4.4564-4.269-7.7879-9.98-7.7879-5.654 0-10.096 3.2882-10.096 8.2494 0 3.9805 2.885 6.3457 7.5 7.6725l3.634 1.0384c3.115.8653 5.884 1.9614 5.884 4.9035 0 3.2306-3.115 5.365-7.211 5.365-3.519 0-6.634-1.5575-6.922-4.9035h-3.692c.346 4.8459 4.269 8.1341 10.614 8.1341 6.808 0 10.673-3.7497 10.673-8.5379 0-5.5381-5.25-7.3264-8.307-8.134l-3-.8077c-2.192-.5769-5.711-1.7306-5.711-4.9035 0-2.8267 2.596-4.9035 6.518-4.9035 3.577 0 6.289 1.7018 6.635 4.6151z"/></g></svg>