<svg fill="none" viewBox="0 0 16 16" xmlns="http://www.w3.org/2000/svg"><path clip-rule="evenodd" d="m16 1.00002c-.0001-.170396-.0437-.337938-.1267-.486733-.0831-.148795-.2027-.273907-.3477-.363466-.145-.0895584-.3104-.14059228-.4806-.14825881-.1702-.00766652-.3396.02828841-.492.10445381l-7.79 3.894004h-3.763c-.79565 0-1.55871.31607-2.12132.87868-.562609.5626-.87868 1.32567-.87868 2.12132s.316071 1.55871.87868 2.12132c.56261.5626 1.32567.87866 2.12132.87866h.28l1.771 5.316c.06635.1992.19372.3725.36405.4953.17033.1227.37499.1888.58495.1887h1c.26522 0 .51957-.1053.70711-.2929.18753-.1875.29289-.4419.29289-.7071v-4.382l6.553 3.276c.1524.0762.3218.1121.492.1045.1702-.0077.3356-.0587.4806-.1483.145-.0895.2646-.2147.3477-.3635.083-.1488.1266-.3163.1267-.4867z" fill="#fff" fill-rule="evenodd"/></svg>