<svg width="16" height="16" viewBox="0 0 16 16" fill="none" xmlns="http://www.w3.org/2000/svg">
<path fill-rule="evenodd" clip-rule="evenodd" d="M16 1.00002C15.9999 0.829624 15.9563 0.662082 15.8733 0.513287C15.7902 0.364492 15.6706 0.23938 15.5256 0.149821C15.3806 0.0602626 15.2152 0.00922872 15.045 0.00156219C14.8748 -0.00610433 14.7054 0.0298506 14.553 0.106016L6.763 4.00002H3C2.20435 4.00002 1.44129 4.31609 0.87868 4.8787C0.316071 5.4413 0 6.20437 0 7.00002C0 7.79567 0.316071 8.55873 0.87868 9.12134C1.44129 9.68394 2.20435 10 3 10H3.28L5.051 15.316C5.11735 15.5152 5.24472 15.6885 5.41505 15.8113C5.58538 15.934 5.79004 16.0001 6 16H7C7.26522 16 7.51957 15.8947 7.70711 15.7071C7.89464 15.5196 8 15.2652 8 15V10.618L14.553 13.894C14.7054 13.9702 14.8748 14.0061 15.045 13.9985C15.2152 13.9908 15.3806 13.9398 15.5256 13.8502C15.6706 13.7607 15.7902 13.6355 15.8733 13.4867C15.9563 13.3379 15.9999 13.1704 16 13V1.00002Z" fill="white"/>
</svg>
