<svg fill="none" viewBox=".76 .2 10 13" xmlns="http://www.w3.org/2000/svg" xmlns:xlink="http://www.w3.org/1999/xlink"><clipPath id="a"><path d="m.764648.203857h10v13h-10z"/></clipPath><g clip-path="url(#a)"><path clip-rule="evenodd" d="m1.52927 2.24451c0-.39783.15803-.77936.43934-1.06066.2813-.281307.66283-.439343 1.06066-.439343h3.4395c.39779.000085.77926.158176 1.0605.439503l2.56053 2.5605c.2813.28124.4394.66271.4395 1.0605v6.43949c0 .3979-.1581.7794-.4394 1.0607-.28128.2813-.66281.4393-1.06063.4393h-6c-.39783 0-.77936-.158-1.06066-.4393-.28131-.2813-.43934-.6628-.43934-1.0607zm1.5 4.5c0-.19891.07902-.38968.21967-.53033s.33142-.21967.53033-.21967h4.5c.19891 0 .38968.07902.53033.21967s.21967.33142.21967.53033-.07902.38968-.21967.53033-.33142.21967-.53033.21967h-4.5c-.19891 0-.38968-.07902-.53033-.21967s-.21967-.33142-.21967-.53033zm.75 2.25c-.19891 0-.38968.07902-.53033.21967s-.21967.33142-.21967.53033.07902.38969.21967.53039c.14065.1406.33142.2196.53033.2196h4.5c.19891 0 .38968-.079.53033-.2196.14065-.1407.21967-.33148.21967-.53039s-.07902-.38968-.21967-.53033-.33142-.21967-.53033-.21967z" fill="#e35851" fill-rule="evenodd"/></g></svg>