<svg width="10" height="13" viewBox="0 0 10 13" fill="none" xmlns="http://www.w3.org/2000/svg">
<path fill-rule="evenodd" clip-rule="evenodd" d="M0.764618 2.04065C0.764618 1.64282 0.922653 1.26129 1.20396 0.979989C1.48526 0.698685 1.86679 0.540649 2.26462 0.540649H5.70412C6.10191 0.540734 6.48338 0.698825 6.76462 0.980149L9.32512 3.54065C9.60644 3.82189 9.76453 4.20336 9.76462 4.60115V11.0406C9.76462 11.4385 9.60658 11.82 9.32528 12.1013C9.04397 12.3826 8.66244 12.5406 8.26462 12.5406H2.26462C1.86679 12.5406 1.48526 12.3826 1.20396 12.1013C0.922653 11.82 0.764618 11.4385 0.764618 11.0406V2.04065ZM2.26462 6.54065C2.26462 6.34174 2.34364 6.15097 2.48429 6.01032C2.62494 5.86967 2.81571 5.79065 3.01462 5.79065H7.51462C7.71353 5.79065 7.9043 5.86967 8.04495 6.01032C8.1856 6.15097 8.26462 6.34174 8.26462 6.54065C8.26462 6.73956 8.1856 6.93033 8.04495 7.07098C7.9043 7.21163 7.71353 7.29065 7.51462 7.29065H3.01462C2.81571 7.29065 2.62494 7.21163 2.48429 7.07098C2.34364 6.93033 2.26462 6.73956 2.26462 6.54065ZM3.01462 8.79065C2.81571 8.79065 2.62494 8.86967 2.48429 9.01032C2.34364 9.15097 2.26462 9.34174 2.26462 9.54065C2.26462 9.73956 2.34364 9.93033 2.48429 10.071C2.62494 10.2116 2.81571 10.2906 3.01462 10.2906H7.51462C7.71353 10.2906 7.9043 10.2116 8.04495 10.071C8.1856 9.93033 8.26462 9.73956 8.26462 9.54065C8.26462 9.34174 8.1856 9.15097 8.04495 9.01032C7.9043 8.86967 7.71353 8.79065 7.51462 8.79065H3.01462Z" fill="#A334FB"/>
</svg>
