<svg width="11" height="13" viewBox="0 0 11 13" fill="none" xmlns="http://www.w3.org/2000/svg">
<g clip-path="url(#clip0_227_12)">
<path fill-rule="evenodd" clip-rule="evenodd" d="M0.795135 2.04065C0.795135 1.64282 0.95317 1.26129 1.23448 0.979989C1.51578 0.698685 1.89731 0.540649 2.29514 0.540649H5.73464C6.13243 0.540734 6.5139 0.698825 6.79514 0.980149L9.35564 3.54065C9.63696 3.82189 9.79505 4.20336 9.79514 4.60115V11.0406C9.79514 11.4385 9.6371 11.82 9.3558 12.1013C9.07449 12.3826 8.69296 12.5406 8.29514 12.5406H2.29514C1.89731 12.5406 1.51578 12.3826 1.23448 12.1013C0.95317 11.82 0.795135 11.4385 0.795135 11.0406V2.04065ZM2.29514 6.54065C2.29514 6.34174 2.37416 6.15097 2.51481 6.01032C2.65546 5.86967 2.84623 5.79065 3.04514 5.79065H7.54514C7.74405 5.79065 7.93482 5.86967 8.07547 6.01032C8.21612 6.15097 8.29514 6.34174 8.29514 6.54065C8.29514 6.73956 8.21612 6.93033 8.07547 7.07098C7.93482 7.21163 7.74405 7.29065 7.54514 7.29065H3.04514C2.84623 7.29065 2.65546 7.21163 2.51481 7.07098C2.37416 6.93033 2.29514 6.73956 2.29514 6.54065ZM3.04514 8.79065C2.84623 8.79065 2.65546 8.86967 2.51481 9.01032C2.37416 9.15097 2.29514 9.34174 2.29514 9.54065C2.29514 9.73956 2.37416 9.93033 2.51481 10.071C2.65546 10.2116 2.84623 10.2906 3.04514 10.2906H7.54514C7.74405 10.2906 7.93482 10.2116 8.07547 10.071C8.21612 9.93033 8.29514 9.73956 8.29514 9.54065C8.29514 9.34174 8.21612 9.15097 8.07547 9.01032C7.93482 8.86967 7.74405 8.79065 7.54514 8.79065H3.04514Z" fill="#1CC199"/>
</g>
<defs>
<clipPath id="clip0_227_12">
<rect width="10" height="13" fill="white" transform="translate(0.0305176)"/>
</clipPath>
</defs>
</svg>
