<svg fill="none" viewBox="0 .43 10 13" xmlns="http://www.w3.org/2000/svg" xmlns:xlink="http://www.w3.org/1999/xlink"><clipPath id="a"><path d="m0 .427979h10v13h-10z"/></clipPath><g clip-path="url(#a)"><path clip-rule="evenodd" d="m.764618 2.46863c0-.39783.158035-.77936.439342-1.06066.2813-.28131.66283-.439342 1.06066-.439342h3.4395c.39779.000085.77926.158172 1.0605.439502l2.5605 2.5605c.28132.28124.43941.66271.4395 1.0605v6.43947c0 .3979-.15804.7794-.43934 1.0607-.28131.2813-.66284.4393-1.06066.4393h-6c-.39783 0-.77936-.158-1.06066-.4393-.281307-.2813-.439342-.6628-.439342-1.0607zm1.500002 4.5c0-.19891.07902-.38968.21967-.53033s.33142-.21967.53033-.21967h4.5c.19891 0 .38968.07902.53033.21967s.21967.33142.21967.53033-.07902.38968-.21967.53033-.33142.21967-.53033.21967h-4.5c-.19891 0-.38968-.07902-.53033-.21967s-.21967-.33142-.21967-.53033zm.75 2.25c-.19891 0-.38968.07902-.53033.21967s-.21967.33142-.21967.53033c0 .19887.07902.38967.21967.53037.14065.1406.33142.2196.53033.2196h4.5c.19891 0 .38968-.079.53033-.2196.14065-.1407.21967-.3315.21967-.53037 0-.19891-.07902-.38968-.21967-.53033s-.33142-.21967-.53033-.21967z" fill="#474dff" fill-rule="evenodd"/></g></svg>