<svg fill="none" viewBox=".26 .74 103.39 32.13" xmlns="http://www.w3.org/2000/svg"><g fill="#fff"><path d="m40.405 18.0084c0-1.7344 1.0781-2.7344 2.5937-2.7344 1.4844 0 2.3594.9453 2.3594 2.5625v7.2031h2.8281v-7.6406c0-2.8985-1.6406-4.5156-4.1328-4.5156-1.8437 0-3.0156.8359-3.5703 2.1953h-.1406v-6.03909h-2.7657v15.99999h2.8282z"/><path d="m55.9415 25.274c2.7969 0 4.7188-1.3672 5.2188-3.4531l-2.6406-.2969c-.3829 1.0156-1.3204 1.5469-2.5391 1.5469-1.8281 0-3.0391-1.2032-3.0625-3.2579h8.3594v-.8671c0-4.211-2.5313-6.0625-5.4844-6.0625-3.4375 0-5.6797 2.5234-5.6797 6.2265 0 3.7656 2.2109 6.1641 5.8281 6.1641zm-3.0156-7.3672c.0859-1.5313 1.2188-2.8203 2.9063-2.8203 1.625 0 2.7187 1.1875 2.7343 2.8203z"/><path d="m66.0582 9.03961h-2.8282v15.99999h2.8282z"/><path d="m68.5264 25.0396h2.8281v-12h-2.8281zm1.4218-13.7031c.8985 0 1.6329-.6875 1.6329-1.53126 0-.85157-.7344-1.53907-1.6329-1.53907-.9062 0-1.6406.6875-1.6406 1.53907 0 .84376.7344 1.53126 1.6406 1.53126z"/><path d="m81.4711 19.9927c0 1.8282-1.3046 2.7344-2.5546 2.7344-1.3594 0-2.2657-.9609-2.2657-2.4844v-7.2031h-2.8281v7.6406c0 2.8828 1.6406 4.5157 4 4.5157 1.7969 0 3.0625-.9454 3.6094-2.2891h.125v2.1328h2.7422v-12h-2.8282z"/><path d="m86.7675 25.0396h2.8281v-7.2969c0-1.4765.9844-2.4765 2.2031-2.4765 1.1953 0 2.0156.8047 2.0156 2.039v7.7344h2.7735v-7.4844c0-1.3515.8047-2.289 2.1719-2.289 1.1406 0 2.0473.6718 2.0473 2.1562v7.6172h2.835v-8.0547c0-2.6797-1.546-4.1015-3.7495-4.1015-1.7422 0-3.0703.8593-3.6016 2.1953h-.125c-.4609-1.3594-1.625-2.1953-3.2422-2.1953-1.6094 0-2.8125.8281-3.3125 2.1953h-.1406v-2.0391h-2.7031z"/><path d="m20.5945 9.09193c.9356-.93542 2.4587-.93542 3.3943 0 .9356.93547.9356 2.45837 0 3.39377-.5419.5418-1.2835.7871-2.0366.6787-.0342-.0057-.0741-.0057-.1084 0-.2225-.0285-.4564 0-.6788.1027-.3138.1426-.5363.405-.6447.7073-.1084.2966-.1027.6331.0399.9354.8044 1.7397.4336 3.8215-.9241 5.179-1.3578 1.3575-3.44 1.7283-5.18.9241-.3138-.1426-.6503-.1483-.9527-.0343-.2967.1084-.5477.3309-.6903.6389-.0913.1996-.1255.4049-.1141.6103-.0057.0399-.0057.0798 0 .1197.1255.7644-.1255 1.5458-.6731 2.0933-.9356.9355-2.45882.9355-3.39441 0-.45638-.4563-.70169-1.0552-.70169-1.6997 0-.6388.25101-1.2434.70169-1.6997.54196-.5419 1.28359-.7871 2.03661-.6788h.0399c.0799.0171.1598.0285.2453.0285.1769 0 .3537-.0342.5192-.114.308-.1426.5248-.3936.6389-.6845.1141-.3023.1141-.6445-.0342-.9582-.8044-1.7397-.4336-3.8216.9242-5.1791 1.3577-1.3575 3.44-1.7282 5.1799-.924.3081.1426.6504.1483.947.0399.2967-.1083.5534-.3308.696-.6388.1084-.2395.1369-.4962.097-.7415v-.0057c-.1255-.7643.1255-1.54571.6732-2.09327zm-2.3732 9.58237c1.0382-1.0381 1.0382-2.7207 0-3.7588-1.0383-1.0381-2.7212-1.0381-3.7595 0s-1.0383 2.7207 0 3.7588 2.7212 1.0381 3.7595 0zm-1.8997-17.93843c8.8709 0 16.0647 7.19249 16.0647 16.06193 0 8.8694-7.188 16.0675-16.0647 16.0675-8.87671 0-16.064764-7.1924-16.064764-16.0675 0-8.87515 7.193764-16.06193 16.064764-16.06193zm8.5629 12.64533c1.4205-1.4203 1.4205-3.71889 0-5.13914-1.4205-1.42024-3.7195-1.42024-5.14 0-.5249.52475-.8558 1.17499-.9927 1.85374-2.5728-.96965-5.5279-.35364-7.4961 1.6142-1.96815 1.9678-2.58427 4.9223-1.60875 7.5005-.68458.1369-1.33493.4677-1.86547.9981-1.4205 1.4203-1.4205 3.7189 0 5.1391 1.42049 1.4203 3.71952 1.4203 5.14002 0 .5306-.5304.8671-1.192.9983-1.8765.7987.2966 1.6316.4449 2.4588.4449 1.8427 0 3.6625-.713 5.0145-2.0648 1.9568-1.9564 2.5786-4.8938 1.6259-7.4662.6789-.1426 1.3349-.4735 1.8655-1.0039z"/></g></svg>