<svg width="141" height="48" viewBox="0 0 141 48" fill="none" xmlns="http://www.w3.org/2000/svg">
<path d="M30.3851 12.4836C31.7829 11.0861 34.0585 11.0861 35.4563 12.4836C36.8542 13.881 36.8542 16.1562 35.4563 17.5536C34.6466 18.3633 33.5386 18.7296 32.4136 18.5677C32.3624 18.5592 32.3028 18.5592 32.2516 18.5677C31.9193 18.5251 31.5698 18.5677 31.2374 18.7211C30.7686 18.9341 30.4362 19.326 30.2742 19.7777C30.1123 20.2209 30.1209 20.7235 30.334 21.1752C31.5357 23.7742 30.9817 26.8845 28.9532 28.9125C26.9246 30.9406 23.8137 31.4944 21.2141 30.2929C20.7454 30.0799 20.2424 30.0714 19.7909 30.2417C19.3475 30.4037 18.9725 30.736 18.7595 31.1962C18.6231 31.4944 18.5719 31.8011 18.589 32.1079C18.5805 32.1676 18.5805 32.2272 18.589 32.2869C18.7766 33.4288 18.4015 34.5961 17.5833 35.4142C16.1855 36.8117 13.9098 36.8117 12.512 35.4142C11.8301 34.7324 11.4636 33.8377 11.4636 32.8749C11.4636 31.9205 11.8386 31.0171 12.512 30.3355C13.3217 29.526 14.4297 29.1595 15.5548 29.3215C15.5718 29.3215 15.5888 29.3215 15.6144 29.3215C15.7338 29.3471 15.8531 29.3641 15.9809 29.3641C16.2452 29.3641 16.5094 29.313 16.7565 29.1936C17.2168 28.9806 17.5406 28.6057 17.7111 28.1711C17.8816 27.7195 17.8816 27.2082 17.6599 26.7396C16.4582 24.1407 17.0122 21.0304 19.0407 19.0023C21.0693 16.9743 24.1802 16.4203 26.7798 17.6219C27.24 17.8349 27.7515 17.8434 28.1946 17.6815C28.6378 17.5195 29.0214 17.1873 29.2344 16.7271C29.3964 16.3692 29.439 15.9858 29.3793 15.6193V15.6108C29.1919 14.469 29.5669 13.3017 30.3851 12.4836ZM26.8394 26.7993C28.3907 25.2484 28.3907 22.7346 26.8394 21.1837C25.2882 19.6329 22.774 19.6329 21.2226 21.1837C19.6714 22.7346 19.6714 25.2484 21.2226 26.7993C22.774 28.35 25.2882 28.35 26.8394 26.7993ZM24.0013 0C37.2547 0 48.0025 10.7452 48.0025 23.9957C48.0025 37.2462 37.2633 48 24.0013 48C10.7392 48 0 37.2547 0 23.9957C0 10.7367 10.7477 0 24.0013 0ZM36.7945 18.8915C38.9167 16.7698 38.9167 13.3356 36.7945 11.2139C34.6722 9.09214 31.2374 9.09214 29.1151 11.2139C28.331 11.9979 27.8367 12.9693 27.632 13.9834C23.7881 12.5347 19.3732 13.455 16.4326 16.3948C13.4921 19.3345 12.5716 23.7486 14.0291 27.6001C13.0063 27.8047 12.0347 28.299 11.242 29.0914C9.11979 31.2132 9.11979 34.6473 11.242 36.769C13.3643 38.8908 16.7992 38.8908 18.9214 36.769C19.714 35.9765 20.217 34.9881 20.413 33.9655C21.6062 34.4086 22.8505 34.6302 24.0865 34.6302C26.8394 34.6302 29.5584 33.565 31.5783 31.5455C34.5017 28.6228 35.4308 24.2343 34.0074 20.3913C35.0217 20.1783 36.0019 19.684 36.7945 18.8915Z" fill="#1A1F36"/>
<path d="M130.329 21.129L126.427 21.5527C126.317 21.1604 126.124 20.7916 125.848 20.4464C125.58 20.1012 125.218 19.8226 124.761 19.6108C124.304 19.3989 123.744 19.293 123.082 19.293C122.191 19.293 121.443 19.4852 120.836 19.8697C120.237 20.2542 119.941 20.7524 119.949 21.3644C119.941 21.8901 120.134 22.3178 120.528 22.6473C120.93 22.9768 121.592 23.2475 122.514 23.4594L125.612 24.1185C127.33 24.4873 128.607 25.0718 129.442 25.8721C130.285 26.6725 130.711 27.7199 130.719 29.0146C130.711 30.1523 130.376 31.1566 129.714 32.0276C129.06 32.8907 128.15 33.5655 126.983 34.0519C125.817 34.5384 124.477 34.7816 122.964 34.7816C120.741 34.7816 118.952 34.3187 117.597 33.3928C116.241 32.4591 115.433 31.1606 115.173 29.4971L119.346 29.097C119.535 29.913 119.937 30.5289 120.552 30.9448C121.167 31.3606 121.967 31.5686 122.952 31.5686C123.969 31.5686 124.784 31.3606 125.399 30.9448C126.022 30.5289 126.333 30.015 126.333 29.403C126.333 28.8851 126.132 28.4575 125.73 28.1201C125.336 27.7827 124.721 27.5238 123.886 27.3433L120.788 26.696C119.047 26.3351 117.758 25.727 116.923 24.8717C116.087 24.0086 115.674 22.918 115.681 21.5998C115.674 20.4856 115.977 19.5205 116.592 18.7045C117.214 17.8807 118.077 17.2451 119.181 16.7979C120.292 16.3428 121.573 16.1152 123.023 16.1152C125.151 16.1152 126.826 16.5664 128.047 17.4687C129.277 18.3711 130.037 19.5912 130.329 21.129Z" fill="#1A1F36"/>
<path d="M106.178 34.7816C104.366 34.7816 102.809 34.3854 101.509 33.5929C100.216 32.8004 99.2192 31.7059 98.5177 30.3092C97.8242 28.9047 97.4774 27.2884 97.4774 25.4602C97.4774 23.6242 97.8321 22.0039 98.5414 20.5994C99.2507 19.1871 100.252 18.0886 101.544 17.304C102.845 16.5115 104.381 16.1152 106.155 16.1152C107.628 16.1152 108.933 16.3859 110.068 16.9273C111.21 17.4609 112.121 18.218 112.799 19.1988C113.476 20.1718 113.862 21.3095 113.957 22.612H109.867C109.701 21.741 109.307 21.0153 108.685 20.4346C108.07 19.8462 107.246 19.5519 106.214 19.5519C105.339 19.5519 104.571 19.7873 103.909 20.2581C103.246 20.721 102.73 21.388 102.36 22.2589C101.997 23.1298 101.816 24.1734 101.816 25.3896C101.816 26.6215 101.997 27.6807 102.36 28.5673C102.722 29.4461 103.231 30.1248 103.885 30.6035C104.547 31.0742 105.323 31.3096 106.214 31.3096C106.844 31.3096 107.408 31.1919 107.904 30.9566C108.409 30.7133 108.83 30.3642 109.169 29.9091C109.508 29.454 109.741 28.9008 109.867 28.2496H113.957C113.855 29.5285 113.476 30.6623 112.822 31.6509C112.168 32.6317 111.277 33.4007 110.15 33.9578C109.023 34.507 107.699 34.7816 106.178 34.7816Z" fill="#1A1F36"/>
<path d="M87.4188 34.7816C85.6455 34.7816 84.1087 34.3932 82.8083 33.6165C81.5078 32.8397 80.4991 31.753 79.7819 30.3563C79.0725 28.9597 78.7179 27.3276 78.7179 25.4602C78.7179 23.5928 79.0725 21.9568 79.7819 20.5523C80.4991 19.1478 81.5078 18.0572 82.8083 17.2804C84.1087 16.5036 85.6455 16.1152 87.4188 16.1152C89.1921 16.1152 90.7289 16.5036 92.0293 17.2804C93.3297 18.0572 94.3346 19.1478 95.0439 20.5523C95.7611 21.9568 96.1197 23.5928 96.1197 25.4602C96.1197 27.3276 95.7611 28.9597 95.0439 30.3563C94.3346 31.753 93.3297 32.8397 92.0293 33.6165C90.7289 34.3932 89.1921 34.7816 87.4188 34.7816ZM87.4424 31.3685C88.4039 31.3685 89.2078 31.1056 89.8541 30.5799C90.5003 30.0464 90.9811 29.3324 91.2963 28.4379C91.6195 27.5434 91.781 26.5469 91.781 25.4484C91.781 24.3421 91.6195 23.3417 91.2963 22.4472C90.9811 21.5449 90.5003 20.8269 89.8541 20.2934C89.2078 19.7598 88.4039 19.4931 87.4424 19.4931C86.4573 19.4931 85.6376 19.7598 84.9835 20.2934C84.3372 20.8269 83.8525 21.5449 83.5294 22.4472C83.2141 23.3417 83.0565 24.3421 83.0565 25.4484C83.0565 26.5469 83.2141 27.5434 83.5294 28.4379C83.8525 29.3324 84.3372 30.0464 84.9835 30.5799C85.6376 31.1056 86.4573 31.3685 87.4424 31.3685Z" fill="#1A1F36"/>
<path d="M65.5924 34.4286H57.3881V10.3247H65.7579C68.1617 10.3247 70.2266 10.8073 71.9526 11.7724C73.6864 12.7296 75.0184 14.1066 75.9484 15.9034C76.8783 17.7002 77.3433 19.8501 77.3433 22.3531C77.3433 24.8639 76.8744 27.0217 75.9365 28.8263C75.0066 30.631 73.6628 32.0159 71.9053 32.981C70.1557 33.9461 68.0514 34.4286 65.5924 34.4286ZM61.774 30.6506H65.3796C67.0662 30.6506 68.473 30.3446 69.6 29.7326C70.727 29.1127 71.5743 28.1908 72.1417 26.9668C72.7092 25.7349 72.9929 24.197 72.9929 22.3531C72.9929 20.5092 72.7092 18.9792 72.1417 17.763C71.5743 16.539 70.7349 15.6249 69.6237 15.0207C68.5203 14.4087 67.149 14.1027 65.5097 14.1027H61.774V30.6506Z" fill="#1A1F36"/>
</svg>
