<svg fill="none" viewBox="0 0 139.21 45.62" xmlns="http://www.w3.org/2000/svg"><path d="m34.7189 17.958c-.7478.7531-1.6693 1.2247-2.6346 1.4152 1.3451 3.6463.4726 7.8189-2.2889 10.6-1.906 1.9196-4.4708 2.9356-7.0675 2.9356-1.1689 0-2.3436-.2088-3.468-.6313-.1872.9774-.6564 1.911-1.408 2.668-2.0017 2.0159-5.2469 2.0159-7.2486 0-2.00163-2.0159-2.00163-5.2846 0-7.3005.7472-.7524 1.668-1.2238 2.6324-1.4146-1.3712-3.6578-.5042-7.8553 2.2697-10.6491 2.7715-2.7915 6.9346-3.6656 10.5641-2.2897.1915-.9651.658-1.8858 1.4007-2.6341 2.0017-2.01585 5.2471-2.01585 7.2487 0 2.0016 2.016 2.0016 5.2846 0 7.3005zm-12.0685-17.958c-12.5094 0-22.6504 10.2134-22.6504 22.8123 0 12.5988 10.141 22.8122 22.6504 22.8122 12.5095 0 22.6505-10.2134 22.6505-22.8122 0-12.5989-10.141-22.8123-22.6505-22.8123zm2.6762 25.4724c-1.4644 1.475-3.8387 1.475-5.3032 0-1.4643-1.4748-1.4643-3.866 0-5.3409 1.4645-1.4748 3.8388-1.4748 5.3032 0 1.4644 1.4749 1.4644 3.8661 0 5.3409zm3.3447-13.6052c-.771.7763-1.1244 1.8876-.9456 2.9726.0626.3551.0248.7204-.132 1.0614-.2023.4399-.5623.7556-.9809.9108-.4196.1555-.898.1496-1.3353-.0545-2.4554-1.1451-5.3908-.6188-7.3047 1.3089-1.9137 1.9273-2.4361 4.8833-1.2999 7.3558.2054.447.2077.9358.0467 1.3624-.1565.414-.4665.7695-.8971.9703-.2371.1105-.4865.163-.7319.163-.1165 0-.2312-.0159-.3443-.0389-1.1206-.1545-2.1684.1961-2.9285.962-.6394.6438-.9915 1.5-.9915 2.4108 0 .9105.3521 1.7665.9915 2.4107 1.3199 1.3288 3.4674 1.3288 4.7871 0 .7708-.7768 1.1243-1.8879.9453-2.9724-.0097-.0596-.0075-.1174 0-.1741-.0204-.287.0283-.5831.1569-.8627.2014-.4383.5597-.7532.9764-.9089.4206-.1572.9008-.1523 1.3399.0525 2.4555 1.1455 5.3907.6185 7.3047-1.3087 1.9137-1.9275 2.4361-4.8836 1.2997-7.3559-.2006-.4363-.2077-.9128-.058-1.3322.1525-.427.4674-.7949.9086-1.0006.3097-.1446.6399-.1879.9554-.1466.0489-.0058.0985-.0076.1495-.0003 1.0673.1531 2.1146-.1981 2.8749-.9642 1.3198-1.3292 1.3198-3.492 0-4.8212-1.3197-1.3294-3.4672-1.3294-4.7869 0zm60.4309 17.8738c.1267-.0106.2219-.016.2852-.016v3.352c-.7396.1489-1.3206.2234-1.7434.2234-1.4158 0-2.5198-.3618-3.3121-1.0854-.7925-.7235-1.1886-1.8515-1.1886-3.3838v-18.8023h3.9936v18.1319c0 .5321.1057.9311.317 1.1971.2113.2661.6339.399 1.2678.399.1268 0 .2537-.0052.3805-.0159zm2.1949 3.3679h4.0255v-16.5997h-4.0255zm17.2189-16.5997h3.962v16.5997h-3.296l-.286-2.1708c-.401.8088-1.025 1.4419-1.87 1.8995-.845.4574-1.796.6863-2.852.6863-1.754 0-3.144-.5427-4.168-1.628-1.0252-1.0855-1.5377-2.522-1.5377-4.3096v-11.0771h3.9617v10.1833c0 2.1068.951 3.1603 2.853 3.1603.803 0 1.479-.2767 2.029-.83.803-.7449 1.204-1.9898 1.204-3.7349zm30.69 5.3949v11.2048h-3.931v-10.311c0-1.0854-.184-1.8941-.554-2.4262-.37-.532-1.03-.798-1.981-.798-1.036 0-1.833.4523-2.393 1.3568-.56.9043-.84 1.9419-.84 3.1123v9.0661h-3.93v-10.311c0-1.0854-.185-1.8941-.555-2.4262-.37-.532-1.03-.798-1.981-.798-1.036 0-1.839.4523-2.409 1.3568-.571.9043-.856 1.9419-.856 3.1123v9.0661h-3.93v-16.5997h3.296l.317 2.2026c1.057-1.7451 2.62-2.6176 4.691-2.6176 2.261 0 3.835.9044 4.723 2.7133 1.035-1.8089 2.694-2.7133 4.976-2.7133 1.712 0 3.032.5266 3.962 1.5801s1.395 2.4634 1.395 4.2298zm-48.0357-7.6934h4.2473v-4.118h-4.2473zm-28.6137 3.5435c.9931 1.1065 1.4897 2.5324 1.4897 4.2775v11.0772h-3.9621v-10.2472c0-1.0215-.206-1.793-.618-2.3143-.4121-.5214-1.1146-.7821-2.1078-.7821-1.0989 0-1.9388.4734-2.5198 1.4205-.5811.947-.8717 2.0058-.8717 3.1762v8.7469h-3.962v-23.0481h3.962v8.2041c.4649-.681 1.1094-1.2131 1.9335-1.5962.8241-.383 1.6799-.5745 2.5674-.5745 1.7327 0 3.0956.5532 4.0888 1.66zm7.4565 5.3948c.0212-1.0215.3064-1.8834.8558-2.5857.6339-.8512 1.553-1.2769 2.7575-1.2769 1.0778 0 1.9124.3192 2.5041.9577.655.7235.9931 1.6919 1.0143 2.9049zm3.645-7.0548c-2.1553 0-3.9092.7022-5.2615 2.1069-1.5849 1.6386-2.3772 3.8519-2.3772 6.6399 0 2.7878.8452 5.0011 2.5357 6.6398 1.4158 1.362 3.1484 2.0431 5.1981 2.0431 2.3878 0 4.2368-.7769 5.5468-2.3304.8241-1.0002 1.289-2.0217 1.3947-3.0646h-3.8036c-.1479.5533-.4119 1.0216-.7923 1.4046-.5283.5321-1.3312.7981-2.409.7981-.9085 0-1.7221-.3405-2.4406-1.0216-.8452-.8086-1.2466-1.894-1.2044-3.256h11.0302c0-.2342.0106-.6065.0317-1.1173.0634-2.2984-.412-4.2244-1.4263-5.778-1.3524-2.0431-3.3598-3.0645-6.0223-3.0645z" fill="#1a1f36"/></svg>