<svg viewBox=".5 0 30 30" xmlns="http://www.w3.org/2000/svg"><path d="m31.4999686 15c8.2842901 0 15.0000314 6.7157413 15.0000314 15.0000314 0 8.2842266-6.7157413 14.9999686-15.0000314 14.9999686-8.2842266 0-14.9999686-6.715742-14.9999686-14.9999686 0-8.2842901 6.715742-15.0000314 14.9999686-15.0000314zm3.191848 7.007777c-.4918291.4920181-.8007497 1.0973847-.9275821 1.7319872-2.4036369-.9047116-5.160551-.3299654-6.9959319 1.5056044-1.8370185 1.8370185-2.4111973 4.5970832-1.503084 7.002232-.6386977.1254466-1.2484746.4353752-1.7433289.9301661-1.3255315 1.3255315-1.3255315 3.4748108 0 4.8003429 1.3255956 1.3255316 3.4747487 1.3255316 4.8003436 0 .4976886-.497752.8084369-1.1116247.9324337-1.7542915.7446114.2777955 1.5225534.4150872 2.2966511.4150872 1.7195753 0 3.4181052-.6680585 4.6803159-1.9302686 1.828828-1.8287018 2.406598-4.572385 1.5158109-6.9699735.6392651-.125257 1.249546-.4353117 1.7447153-.9305432 1.3255943-1.3255322 1.3255943-3.474748 0-4.800343-1.3255328-1.3255321-3.4747486-1.3255321-4.8003436 0zm3.9655058.7953943c.8740278.8740271.8740278 2.2961478 0 3.1701749-.5035481.503737-1.1970604.7346561-1.9038683.6339718-.0337717-.0047888-.0666604-.0035913-.0990463.0001889-.2089291-.027156-.4275625.001323-.6327121.0964002-.2921606.1352745-.5007125.3771569-.6016492.6579143-.0991724.2757796-.0944464.5891111.0383709.8759796.7525503 1.625695.4066445 3.5694474-.8607322 4.8368235-1.2675028 1.2672512-3.2113174 1.6137243-4.8374536.8605439-.2907748-.134645-.6087689-.1379218-.8873214-.034528-.2759052.1023859-.5131884.3094253-.6465725.5976174-.0851853.1838531-.1174444.3785433-.1038984.5673107-.0049777.0372368-.0064269.0752933 0 .1144199.1185157.713108-.1156168 1.4437322-.6260324 1.9545262-.8739643.8737121-2.296085.8737121-3.1702377 0-.4234039-.4235928-.6565918-.9864932-.6565918-1.5851819 0-.598877.2331879-1.1618402.6565918-1.5851813.503422-.5036115 1.1973134-.7341528 1.9394043-.6325232.0749149.0151219.1508377.0255806.2280208.0255806.1624938 0 .3276344-.0345273.4846466-.107174.2851676-.1320617.4905061-.3658158.5940882-.6380669.1066701-.280505.1051587-.6019015-.0308733-.895827-.7524241-1.6257583-.4065184-3.5694474.8607962-4.8367607 1.2675022-1.2675029 3.211443-1.6135975 4.837453-.8606067.2896407.1342044.6064386.1380474.8842969.035851.2772288-.1020708.5156455-.3096775.6495976-.5989403.1038351-.2241772.1288483-.4644215.0874529-.6979233-.1184524-.7134237.1156168-1.4441101.6261597-1.9545896.8739631-.8741527 2.2961472-.8741527 3.1701103 0zm-8.897028 5.4341257c-.9697332.9697967-.9697332 2.5421255 0 3.5118594.9697972.9698593 2.5421882.9698593 3.5119227 0 .9697966-.9697339.9697966-2.5420627 0-3.5118594-.9697345-.9697332-2.5421255-.9697332-3.5119227 0z" fill="#fff" fill-rule="evenodd" transform="translate(-16 -15)"/></svg>