<svg fill="none" viewBox=".36 .74 20 20" xmlns="http://www.w3.org/2000/svg"><path d="m10.3606 1.73587v1m0 16.00003v1m9-9h-1m-16 0h-1m15.364 6.364-.707-.707m-11.314-11.31403-.707-.707m12.728 0-.707.707m-11.314 11.31403-.707.707m10.364-6.364c0 1.0608-.4214 2.0783-1.1716 2.8284-.7501.7501-1.7675 1.1716-2.8284 1.1716-1.06087 0-2.07829-.4215-2.82843-1.1716-.75015-.7501-1.17157-1.7676-1.17157-2.8284 0-1.0609.42142-2.07831 1.17157-2.82846.75014-.75014 1.76756-1.17157 2.82843-1.17157 1.0609 0 2.0783.42143 2.8284 1.17157.7502.75015 1.1716 1.76756 1.1716 2.82846z" stroke="#000" stroke-linecap="round" stroke-linejoin="round" stroke-width="2"/></svg>