<svg xmlns="http://www.w3.org/2000/svg" fill="none" viewBox="0.2 0.33 75.79 75.79"><rect x=".201" y=".325" width="75.795" height="75.795" rx="14" fill="#474DFF"/><path fill-rule="evenodd" clip-rule="evenodd" d="M32.6047 31.7293C29.0187 35.3153 29.0187 41.1295 32.6048 44.7155C36.1908 48.3016 42.0049 48.3016 45.591 44.7155C48.0339 42.2726 51.9947 42.2726 54.4376 44.7155C56.8805 47.1585 56.8805 51.1192 54.4376 53.5621C45.9657 62.034 32.2301 62.034 23.7582 53.5621C15.2863 45.0902 15.2863 31.3546 23.7582 22.8827C32.23 14.4108 45.9657 14.4108 54.4376 22.8827C56.8805 25.3256 56.8805 29.2864 54.4376 31.7293C51.9947 34.1722 48.0339 34.1722 45.591 31.7293C42.0049 28.1432 36.1908 28.1432 32.6047 31.7293Z" fill="#fff"/></svg>