<svg xmlns="http://www.w3.org/2000/svg" viewBox="0 0 437 88" width="437" height="88"><style>tspan { white-space:pre }.shp0 { fill: #000000 } </style><g ><path class="shp0" d="M8.38 67.57C4.81 66.44 2.02 65.02 0 63.31L2.93 58.18C4.95 59.77 7.48 61.07 10.53 62.07C13.58 63.08 16.76 63.59 20.06 63.59C24.46 63.59 27.71 62.9 29.81 61.53C31.92 60.15 32.98 58.21 32.98 55.71C32.98 53.94 32.39 52.55 31.23 51.54C30.08 50.53 28.61 49.77 26.84 49.25C25.07 48.73 22.72 48.23 19.79 47.74C15.88 47.01 12.73 46.26 10.35 45.49C7.97 44.73 5.94 43.43 4.26 41.6C2.58 39.77 1.74 37.24 1.74 34C1.74 29.97 3.42 26.67 6.78 24.11C10.14 21.54 14.81 20.26 20.79 20.26C23.91 20.26 27.02 20.67 30.14 21.49C33.25 22.32 35.81 23.41 37.83 24.75L34.99 29.97C31.02 27.22 26.29 25.85 20.79 25.85C16.64 25.85 13.51 26.58 11.41 28.05C9.3 29.51 8.24 31.44 8.24 33.82C8.24 35.65 8.84 37.11 10.03 38.21C11.22 39.31 12.7 40.12 14.47 40.64C16.24 41.16 18.69 41.69 21.8 42.24C25.65 42.98 28.73 43.71 31.05 44.44C33.37 45.17 35.36 46.43 37 48.2C38.66 49.97 39.48 52.41 39.48 55.52C39.48 59.74 37.72 63.08 34.21 65.55C30.7 68.03 25.83 69.27 19.6 69.27C15.69 69.27 11.96 68.7 8.38 67.57Z" /><path fill-rule="evenodd" class="shp0" d="M71.9 69.43C66.95 69.43 62.5 68.36 58.68 66.25C54.86 64.14 51.83 61.18 49.68 57.44C47.54 53.71 46.45 49.43 46.45 44.72C46.45 40.01 47.5 35.73 49.54 32C51.59 28.27 54.45 25.32 58.03 23.23C61.62 21.15 65.7 20.09 70.16 20.09C74.63 20.09 78.69 21.15 82.25 23.23C85.8 25.32 88.62 28.25 90.64 31.95C92.66 35.65 93.69 39.95 93.69 44.72L93.59 46.9L53.31 46.9C53.7 51.76 55.62 55.74 59.01 58.74C62.44 61.79 66.84 63.33 72.09 63.33C75.05 63.33 77.8 62.79 80.27 61.74C82.73 60.69 84.9 59.11 86.71 57.06L86.84 56.92L90.72 61.38L90.62 61.49C88.47 64.07 85.76 66.06 82.55 67.4C79.34 68.75 75.76 69.43 71.9 69.43ZM53.31 41.71L87.11 41.71C86.66 37.1 84.88 33.3 81.82 30.41C78.72 27.49 74.8 26.01 70.16 26.01C65.59 26.01 61.7 27.49 58.6 30.41C55.54 33.3 53.76 37.1 53.31 41.71Z" /><path class="shp0" d="M145.77 25.53C149.35 29.04 151.13 34.15 151.13 40.87L151.13 68.81L144.63 68.81L144.63 41.51C144.63 36.5 143.38 32.69 140.88 30.06C138.37 27.44 134.8 26.12 130.16 26.12C124.97 26.12 120.86 27.67 117.84 30.75C114.82 33.83 113.31 38.09 113.31 43.53L113.31 68.81L106.8 68.81L106.8 20.63L113.03 20.63L113.03 29.51C114.8 26.58 117.26 24.31 120.4 22.69C123.54 21.07 127.2 20.26 131.35 20.26C137.39 20.26 142.2 22.02 145.77 25.53Z" /><path fill-rule="evenodd" class="shp0" d="M151.47 69.14L144.29 69.14L144.29 41.51C144.29 36.61 143.06 32.84 140.64 30.29C138.2 27.75 134.68 26.46 130.16 26.46C125.09 26.46 121.02 27.98 118.08 30.98C115.13 33.99 113.64 38.21 113.64 43.53L113.64 69.14L106.47 69.14L106.47 20.29L113.36 20.29L113.36 28.38C115.1 25.86 117.42 23.85 120.25 22.39C123.43 20.75 127.16 19.93 131.35 19.93C137.46 19.93 142.39 21.73 146.01 25.29C149.63 28.85 151.47 34.09 151.47 40.87L151.47 69.14ZM144.96 68.47L150.8 68.47L150.8 40.87C150.8 34.28 149.03 29.2 145.54 25.76C142.05 22.34 137.27 20.59 131.35 20.59C127.27 20.59 123.64 21.4 120.56 22.99C117.48 24.57 115.05 26.82 113.32 29.69L112.7 30.71L112.7 20.96L107.14 20.96L107.14 68.47L112.97 68.47L112.97 43.53C112.97 38.03 114.53 33.65 117.6 30.51C120.68 27.38 124.9 25.79 130.16 25.79C134.87 25.79 138.56 27.15 141.12 29.82C143.67 32.51 144.96 36.43 144.96 41.51L144.96 68.47Z" /><path class="shp0" d="M170.51 67.57C166.93 66.44 164.14 65.02 162.13 63.31L165.06 58.18C167.07 59.77 169.61 61.07 172.66 62.07C175.71 63.08 178.89 63.59 182.18 63.59C186.58 63.59 189.83 62.9 191.94 61.53C194.04 60.15 195.1 58.21 195.1 55.71C195.1 53.94 194.52 52.55 193.36 51.54C192.2 50.53 190.73 49.77 188.96 49.25C187.19 48.73 184.84 48.23 181.91 47.74C178 47.01 174.86 46.26 172.47 45.49C170.09 44.73 168.06 43.43 166.38 41.6C164.7 39.77 163.86 37.24 163.86 34C163.86 29.97 165.55 26.67 168.9 24.11C172.26 21.54 176.93 20.26 182.92 20.26C186.03 20.26 189.14 20.67 192.26 21.49C195.37 22.32 197.94 23.41 199.96 24.75L197.11 29.97C193.14 27.22 188.41 25.85 182.92 25.85C178.76 25.85 175.64 26.58 173.53 28.05C171.42 29.51 170.37 31.44 170.37 33.82C170.37 35.65 170.96 37.11 172.15 38.21C173.35 39.31 174.82 40.12 176.6 40.64C178.37 41.16 180.81 41.69 183.92 42.24C187.77 42.98 190.85 43.71 193.17 44.44C195.49 45.17 197.48 46.43 199.13 48.2C200.77 49.97 201.6 52.41 201.6 55.52C201.6 59.74 199.85 63.08 196.34 65.55C192.82 68.03 187.95 69.27 181.73 69.27C177.82 69.27 174.08 68.7 170.51 67.57Z" /><path fill-rule="evenodd" class="shp0" d="M181.72 69.77C177.78 69.77 173.95 69.19 170.35 68.05C166.74 66.9 163.86 65.44 161.8 63.69L161.48 63.43L164.91 57.43L165.37 57.79C167.32 59.33 169.83 60.61 172.82 61.6C175.81 62.59 178.96 63.08 182.18 63.08C186.46 63.08 189.65 62.41 191.66 61.1C193.63 59.82 194.59 58.05 194.59 55.71C194.59 54.07 194.08 52.84 193.03 51.92C191.93 50.97 190.51 50.23 188.82 49.73C187.05 49.22 184.7 48.71 181.83 48.24C177.92 47.5 174.73 46.74 172.32 45.97C169.87 45.19 167.75 43.83 166.01 41.94C164.25 40.02 163.36 37.35 163.36 34C163.36 29.83 165.12 26.36 168.59 23.71C172.03 21.09 176.84 19.76 182.92 19.76C186.06 19.76 189.24 20.18 192.39 21.01C195.53 21.84 198.17 22.96 200.23 24.33L200.61 24.58L197.29 30.7L196.83 30.38C192.96 27.71 188.28 26.35 182.92 26.35C178.89 26.35 175.83 27.06 173.82 28.46C171.83 29.84 170.87 31.59 170.87 33.82C170.87 35.51 171.4 36.83 172.49 37.84C173.63 38.89 175.06 39.67 176.74 40.16C178.47 40.67 180.91 41.21 184.01 41.75C187.87 42.48 191 43.23 193.32 43.96C195.72 44.71 197.79 46.03 199.5 47.85C201.23 49.72 202.1 52.3 202.1 55.53C202.1 59.89 200.26 63.4 196.62 65.97C193.04 68.49 188.03 69.77 181.72 69.77ZM162.77 63.19C164.71 64.74 167.35 66.05 170.66 67.09C174.16 68.2 177.88 68.76 181.72 68.76C187.82 68.76 192.64 67.54 196.05 65.14C199.44 62.75 201.1 59.61 201.1 55.53C201.1 52.56 200.31 50.21 198.76 48.53C197.17 46.84 195.24 45.62 193.02 44.92C190.73 44.19 187.64 43.46 183.83 42.73C180.66 42.18 178.24 41.65 176.46 41.12C174.63 40.59 173.06 39.73 171.81 38.58C170.52 37.38 169.86 35.78 169.86 33.82C169.86 31.27 171 29.19 173.24 27.63C175.43 26.12 178.68 25.34 182.92 25.34C188.27 25.34 192.99 26.66 196.94 29.24L199.29 24.92C197.38 23.72 194.98 22.73 192.13 21.98C189.07 21.17 185.97 20.76 182.92 20.76C177.07 20.76 172.46 22.02 169.21 24.51C165.95 27 164.36 30.1 164.36 34C164.36 37.09 165.17 39.54 166.75 41.26C168.37 43.02 170.34 44.29 172.62 45.01C174.99 45.77 178.15 46.53 182 47.25C184.9 47.73 187.29 48.24 189.1 48.77C190.94 49.3 192.48 50.11 193.69 51.16C194.96 52.26 195.6 53.79 195.6 55.71C195.6 58.38 194.46 60.48 192.21 61.94C190.03 63.37 186.65 64.09 182.18 64.09C178.85 64.09 175.59 63.57 172.5 62.55C169.63 61.6 167.18 60.39 165.21 58.93L162.77 63.19Z" /><path fill-rule="evenodd" class="shp0" d="M255.55 46.73L215.25 46.73C215.62 51.74 217.54 55.78 221.02 58.87C224.5 61.95 228.89 63.49 234.21 63.49C237.2 63.49 239.95 62.96 242.45 61.89C244.96 60.82 247.12 59.25 248.96 57.17L252.62 61.39C250.48 63.95 247.81 65.91 244.6 67.25C241.4 68.59 237.87 69.27 234.03 69.27C229.08 69.27 224.7 68.21 220.88 66.1C217.07 64 214.09 61.08 211.95 57.36C209.81 53.63 208.75 49.42 208.75 44.71C208.75 40.01 209.77 35.8 211.81 32.08C213.86 28.35 216.67 25.45 220.24 23.37C223.81 21.3 227.83 20.26 232.29 20.26C236.74 20.26 240.74 21.3 244.28 23.37C247.82 25.45 250.61 28.34 252.62 32.03C254.64 35.72 255.64 39.95 255.64 44.71L255.55 46.73ZM220.61 30.29C217.46 33.25 215.68 37.11 215.25 41.88L249.41 41.88C248.99 37.11 247.2 33.25 244.05 30.29C240.91 27.33 236.99 25.85 232.29 25.85C227.65 25.85 223.76 27.33 220.61 30.29Z" /><path fill-rule="evenodd" class="shp0" d="M234.02 69.93C228.99 69.93 224.46 68.84 220.56 66.69C216.65 64.53 213.56 61.5 211.37 57.69C209.18 53.88 208.07 49.52 208.07 44.72C208.07 39.92 209.13 35.56 211.23 31.75C213.32 27.94 216.24 24.93 219.9 22.79C223.57 20.67 227.74 19.59 232.29 19.59C236.84 19.59 240.99 20.67 244.62 22.79C248.26 24.93 251.15 27.93 253.21 31.71C255.27 35.49 256.32 39.87 256.32 44.72L256.19 47.4L215.98 47.4C216.46 51.88 218.3 55.57 221.46 58.37C224.8 61.32 229.09 62.82 234.21 62.82C237.1 62.82 239.78 62.3 242.19 61.28C244.59 60.26 246.69 58.72 248.46 56.73L248.96 56.16L253.5 61.38L253.14 61.81C250.94 64.46 248.15 66.5 244.87 67.87C241.6 69.24 237.95 69.93 234.02 69.93ZM232.29 20.93C227.97 20.93 224.03 21.95 220.58 23.95C217.13 25.96 214.37 28.8 212.4 32.4C210.42 36 209.42 40.15 209.42 44.72C209.42 49.28 210.46 53.42 212.53 57.03C214.6 60.62 217.51 63.48 221.21 65.52C224.9 67.56 229.22 68.59 234.02 68.59C237.77 68.59 241.24 67.93 244.35 66.63C247.25 65.42 249.73 63.66 251.74 61.39L248.94 58.18C247.16 60.05 245.07 61.5 242.72 62.51C240.14 63.61 237.28 64.16 234.21 64.16C228.75 64.16 224.16 62.55 220.57 59.37C216.98 56.18 214.96 51.94 214.58 46.78L214.53 46.06L254.91 46.06L254.98 44.69C254.97 40.09 253.99 35.93 252.03 32.35C250.09 28.79 247.37 25.96 243.95 23.95C240.53 21.95 236.6 20.93 232.29 20.93ZM250.15 42.55L214.52 42.55L214.58 41.82C215.02 36.91 216.89 32.87 220.15 29.8C223.41 26.73 227.5 25.18 232.29 25.18C237.14 25.18 241.25 26.73 244.51 29.8C247.77 32.87 249.64 36.91 250.08 41.82L250.15 42.55ZM215.99 41.21L248.67 41.21C248.15 36.97 246.44 33.46 243.6 30.77C240.59 27.95 236.78 26.52 232.29 26.52C227.85 26.52 224.08 27.95 221.07 30.77C218.22 33.46 216.51 36.97 215.99 41.21Z" /><path fill-rule="evenodd" class="shp0" d="M312.89 0.84L312.89 68.8L306.66 68.8L306.66 59.28C304.71 62.51 302.13 64.99 298.92 66.7C295.72 68.41 292.1 69.27 288.07 69.27C283.55 69.27 279.46 68.23 275.8 66.15C272.13 64.07 269.26 61.18 267.18 57.44C265.11 53.72 264.07 49.48 264.07 44.71C264.07 39.95 265.11 35.71 267.18 31.98C269.26 28.26 272.13 25.37 275.8 23.33C279.46 21.28 283.55 20.26 288.07 20.26C291.98 20.26 295.5 21.07 298.65 22.69C301.79 24.3 304.38 26.67 306.39 29.79L306.39 0.84L312.89 0.84ZM297.73 61.16C300.45 59.6 302.59 57.39 304.14 54.51C305.7 51.65 306.48 48.38 306.48 44.71C306.48 41.05 305.7 37.79 304.14 34.91C302.59 32.04 300.45 29.83 297.73 28.28C295.02 26.72 291.98 25.94 288.62 25.94C285.2 25.94 282.13 26.72 279.41 28.28C276.7 29.83 274.56 32.04 273 34.91C271.45 37.79 270.67 41.05 270.67 44.71C270.67 48.38 271.45 51.65 273 54.51C274.56 57.39 276.7 59.6 279.41 61.16C282.13 62.71 285.2 63.49 288.62 63.49C291.98 63.49 295.02 62.71 297.73 61.16Z" /><path fill-rule="evenodd" class="shp0" d="M288.07 70.1C283.42 70.1 279.15 69.01 275.38 66.88C271.6 64.74 268.6 61.7 266.45 57.86C264.32 54.02 263.23 49.6 263.23 44.72C263.23 39.83 264.32 35.41 266.45 31.57C268.6 27.73 271.6 24.71 275.38 22.6C279.16 20.49 283.43 19.42 288.07 19.42C292.08 19.42 295.77 20.27 299.03 21.94C301.54 23.24 303.73 25.01 305.55 27.22L305.55 0L313.73 0L313.73 69.64L305.83 69.64L305.83 61.97C304.03 64.25 301.85 66.08 299.32 67.44C296 69.2 292.22 70.1 288.07 70.1ZM288.07 21.1C283.71 21.1 279.72 22.09 276.2 24.06C272.69 26.02 269.9 28.82 267.91 32.39C265.92 35.97 264.91 40.12 264.91 44.72C264.91 49.31 265.92 53.46 267.91 57.04C269.91 60.61 272.7 63.43 276.21 65.42C279.72 67.41 283.71 68.42 288.07 68.42C291.94 68.42 295.46 67.59 298.53 65.96C301.58 64.33 304.08 61.94 305.95 58.85L307.5 56.28L307.5 67.97L312.06 67.97L312.06 1.68L307.23 1.68L307.23 32.62L305.68 30.24C303.76 27.27 301.27 24.98 298.27 23.43C295.25 21.88 291.81 21.1 288.07 21.1ZM288.61 64.33C285.06 64.33 281.83 63.51 279 61.88C276.16 60.26 273.89 57.91 272.26 54.91C270.65 51.93 269.83 48.5 269.83 44.72C269.83 40.94 270.65 37.5 272.26 34.51C273.89 31.52 276.16 29.18 279 27.55C281.82 25.93 285.06 25.1 288.61 25.1C292.11 25.1 295.32 25.93 298.14 27.55C300.99 29.18 303.25 31.52 304.88 34.51C306.49 37.5 307.32 40.93 307.32 44.72C307.32 48.5 306.49 51.93 304.88 54.91C303.25 57.91 300.99 60.25 298.14 61.88C295.32 63.51 292.11 64.33 288.61 64.33ZM288.61 26.78C285.35 26.78 282.4 27.53 279.83 29C277.26 30.47 275.21 32.59 273.74 35.31C272.25 38.05 271.5 41.21 271.5 44.72C271.5 48.22 272.25 51.38 273.74 54.12C275.21 56.84 277.27 58.96 279.83 60.43C282.4 61.91 285.36 62.66 288.61 62.66C291.81 62.66 294.74 61.91 297.32 60.43C299.88 58.96 301.93 56.84 303.41 54.12C304.89 51.38 305.64 48.22 305.64 44.72C305.64 41.21 304.89 38.05 303.41 35.31C301.93 32.6 299.88 30.47 297.32 29C294.74 27.53 291.82 26.78 288.61 26.78Z" /><path fill-rule="evenodd" class="shp0" d="M375.63 20.63L375.63 62.94C375.63 71.13 373.63 77.19 369.63 81.12C365.63 85.06 359.6 87.04 351.54 87.04C347.08 87.04 342.86 86.38 338.85 85.06C334.85 83.75 331.6 81.93 329.1 79.61L332.4 74.67C334.72 76.74 337.54 78.36 340.87 79.52C344.2 80.68 347.7 81.26 351.36 81.26C357.46 81.26 361.95 79.84 364.82 77C367.69 74.16 369.13 69.75 369.13 63.77L369.13 57.63C367.11 60.69 364.47 63 361.2 64.59C357.94 66.18 354.32 66.97 350.35 66.97C345.83 66.97 341.73 65.98 338.03 64C334.34 62.01 331.43 59.23 329.33 55.66C327.22 52.09 326.17 48.04 326.17 43.53C326.17 39.01 327.22 34.98 329.33 31.44C331.43 27.89 334.32 25.14 337.98 23.19C341.65 21.24 345.77 20.26 350.35 20.26C354.44 20.26 358.14 21.08 361.44 22.73C364.73 24.38 367.39 26.76 369.4 29.87L369.4 20.63L375.63 20.63ZM360.43 58.96C363.23 57.46 365.42 55.37 366.97 52.69C368.53 50 369.31 46.95 369.31 43.53C369.31 40.11 368.53 37.07 366.97 34.41C365.42 31.75 363.25 29.68 360.47 28.18C357.69 26.69 354.53 25.94 350.99 25.94C347.51 25.94 344.38 26.67 341.6 28.14C338.82 29.6 336.66 31.68 335.1 34.37C333.55 37.05 332.76 40.11 332.76 43.53C332.76 46.95 333.55 50 335.1 52.69C336.66 55.37 338.82 57.46 341.6 58.96C344.38 60.46 347.51 61.2 350.99 61.2C354.47 61.2 357.62 60.46 360.43 58.96Z" /><path fill-rule="evenodd" class="shp0" d="M351.54 88.04C347 88.04 342.62 87.36 338.54 86.02C334.42 84.66 331.02 82.76 328.42 80.35L327.79 79.77L332.21 73.15L333.07 73.92C335.28 75.9 338.01 77.46 341.2 78.57C344.41 79.69 347.83 80.26 351.36 80.26C357.16 80.26 361.46 78.92 364.12 76.29C366.78 73.66 368.13 69.44 368.13 63.77L368.13 60.59C366.32 62.63 364.15 64.28 361.65 65.49C358.25 67.15 354.45 67.98 350.35 67.98C345.69 67.98 341.38 66.93 337.56 64.88C333.72 62.82 330.66 59.89 328.46 56.17C326.28 52.46 325.17 48.21 325.17 43.53C325.17 38.85 326.28 34.61 328.47 30.92C330.66 27.24 333.71 24.34 337.51 22.31C341.31 20.28 345.63 19.26 350.35 19.26C354.59 19.26 358.47 20.12 361.88 21.83C364.41 23.09 366.58 24.78 368.4 26.87L368.4 19.62L376.64 19.62L376.64 62.94C376.64 71.36 374.52 77.72 370.34 81.84C366.16 85.95 359.84 88.04 351.54 88.04ZM330.42 79.45C332.73 81.39 335.66 82.96 339.17 84.11C343.05 85.38 347.21 86.03 351.54 86.03C359.29 86.03 365.14 84.14 368.93 80.41C372.71 76.68 374.63 70.81 374.63 62.94L374.63 21.63L370.41 21.63L370.41 33.27L368.56 30.42C366.65 27.48 364.11 25.19 360.99 23.63C357.85 22.06 354.28 21.26 350.35 21.26C345.96 21.26 341.96 22.21 338.46 24.08C334.98 25.93 332.19 28.59 330.19 31.95C328.19 35.32 327.17 39.21 327.17 43.53C327.17 47.84 328.19 51.75 330.2 55.15C332.2 58.55 335 61.23 338.51 63.11C342.04 65.01 346.02 65.97 350.35 65.97C354.15 65.97 357.65 65.2 360.77 63.69C363.86 62.18 366.39 59.96 368.29 57.08L370.13 54.28L370.13 63.77C370.13 70 368.58 74.7 365.53 77.72C362.48 80.74 357.71 82.27 351.36 82.27C347.6 82.27 343.97 81.66 340.54 80.47C337.51 79.41 334.85 77.97 332.61 76.16L330.42 79.45ZM351 62.21C347.36 62.21 344.04 61.41 341.13 59.84C338.19 58.27 335.88 56.02 334.23 53.19C332.59 50.35 331.76 47.11 331.76 43.53C331.76 39.95 332.59 36.7 334.23 33.86C335.87 31.03 338.19 28.8 341.14 27.25C344.05 25.71 347.36 24.94 351 24.94C354.69 24.94 358.03 25.73 360.95 27.3C363.88 28.88 366.2 31.1 367.84 33.91C369.48 36.71 370.32 39.95 370.32 43.53C370.32 47.11 369.49 50.35 367.85 53.19C366.2 56.02 363.86 58.26 360.9 59.85L360.9 59.85C357.96 61.41 354.63 62.21 351 62.21ZM351 26.94C347.69 26.94 344.69 27.64 342.07 29.02C339.47 30.4 337.42 32.36 335.97 34.87C334.51 37.39 333.77 40.31 333.77 43.53C333.77 46.75 334.51 49.66 335.97 52.18C337.43 54.69 339.48 56.68 342.08 58.07C344.69 59.48 347.69 60.2 351 60.2C354.29 60.2 357.31 59.48 359.96 58.07C362.59 56.67 364.66 54.69 366.11 52.18C367.57 49.66 368.31 46.75 368.31 43.53C368.31 40.31 367.57 37.41 366.11 34.92C364.66 32.44 362.6 30.47 360 29.07C357.38 27.66 354.35 26.94 351 26.94Z" /><path fill-rule="evenodd" class="shp0" d="M435.81 46.73L395.51 46.73C395.88 51.74 397.8 55.78 401.28 58.87C404.76 61.95 409.15 63.49 414.47 63.49C417.46 63.49 420.21 62.96 422.71 61.89C425.22 60.82 427.39 59.25 429.22 57.17L432.88 61.39C430.74 63.95 428.07 65.91 424.86 67.25C421.66 68.59 418.13 69.27 414.28 69.27C409.34 69.27 404.96 68.21 401.14 66.1C397.33 64 394.35 61.08 392.21 57.36C390.08 53.63 389 49.42 389 44.71C389 40.01 390.03 35.8 392.07 32.08C394.12 28.35 396.93 25.45 400.5 23.37C404.08 21.3 408.09 20.26 412.55 20.26C417 20.26 421 21.3 424.54 23.37C428.08 25.45 430.86 28.34 432.88 32.03C434.9 35.72 435.91 39.95 435.91 44.71L435.81 46.73ZM400.87 30.29C397.72 33.25 395.94 37.11 395.51 41.88L429.67 41.88C429.25 37.11 427.46 33.25 424.32 30.29C421.17 27.33 417.25 25.85 412.55 25.85C407.9 25.85 404.01 27.33 400.87 30.29Z" /><path fill-rule="evenodd" class="shp0" d="M414.28 70.43C409.16 70.43 404.55 69.32 400.58 67.13C396.58 64.92 393.42 61.83 391.2 57.94C388.97 54.05 387.84 49.6 387.84 44.72C387.84 39.83 388.91 35.39 391.05 31.51C393.18 27.62 396.17 24.54 399.91 22.36C403.65 20.19 407.9 19.09 412.55 19.09C417.19 19.09 421.42 20.19 425.14 22.36C428.85 24.54 431.81 27.61 433.91 31.47C436.01 35.33 437.08 39.78 437.08 44.72L436.93 47.9L396.81 47.9C397.35 52.04 399.08 55.36 402.06 57.99C405.3 60.87 409.48 62.32 414.47 62.32C417.29 62.32 419.91 61.81 422.26 60.81C424.58 59.82 426.63 58.33 428.34 56.4L429.22 55.4L434.42 61.37L433.78 62.14C431.52 64.84 428.68 66.93 425.32 68.33C421.99 69.73 418.27 70.43 414.28 70.43ZM412.55 21.43C408.32 21.43 404.47 22.43 401.09 24.38C397.72 26.35 395.03 29.13 393.1 32.64C391.16 36.17 390.18 40.23 390.18 44.72C390.18 49.19 391.2 53.25 393.23 56.78C395.24 60.29 398.09 63.08 401.71 65.08C405.33 67.08 409.56 68.09 414.28 68.09C417.96 68.09 421.37 67.45 424.41 66.17C427.11 65.04 429.42 63.43 431.33 61.38L429.18 58.92C427.43 60.65 425.42 62.01 423.17 62.97C420.54 64.1 417.61 64.66 414.47 64.66C408.88 64.66 404.19 63.01 400.5 59.74C396.81 56.47 394.73 52.12 394.34 46.82L394.24 45.56L434.69 45.56L434.74 44.66C434.74 40.18 433.77 36.1 431.85 32.59C429.96 29.11 427.29 26.35 423.95 24.38C420.6 22.43 416.77 21.43 412.55 21.43ZM430.96 43.05L394.23 43.05L394.34 41.77C394.8 36.74 396.72 32.59 400.06 29.43L400.06 29.43C403.43 26.28 407.63 24.68 412.55 24.68C417.53 24.68 421.76 26.28 425.12 29.43C428.47 32.59 430.39 36.74 430.84 41.77L430.96 43.05ZM396.83 40.71L428.36 40.71C427.77 36.8 426.18 33.66 423.51 31.14C420.56 28.37 416.97 27.02 412.55 27.02C408.18 27.02 404.62 28.37 401.67 31.14C399 33.66 397.41 36.8 396.83 40.71Z" /></g></svg>